<svg width="20" height="20" viewBox="0 0 20 20" fill="none" xmlns="http://www.w3.org/2000/svg">
<g id="solar:box-broken" clip-path="url(#clip0_2284_1045)">
<path id="Vector" d="M18.32 8.33329C18.2891 7.24079 18.1858 6.54413 17.8358 5.94996C17.3375 5.10413 16.4408 4.63329 14.6483 3.69329L12.9816 2.81829C11.5183 2.05079 10.7866 1.66663 9.99996 1.66663C9.21329 1.66663 8.48163 2.04996 7.01829 2.81829L5.35163 3.69329C3.55913 4.63329 2.66246 5.10413 2.16413 5.94996C1.66663 6.79496 1.66663 7.84746 1.66663 9.95163V10.0491C1.66663 12.1525 1.66663 13.205 2.16413 14.05C2.66246 14.8958 3.55913 15.3666 5.35163 16.3075L7.01829 17.1816C8.48163 17.9491 9.21329 18.3333 9.99996 18.3333C10.7866 18.3333 11.5183 17.95 12.9816 17.1816L14.6483 16.3066C16.4408 15.3658 17.3375 14.8958 17.8358 14.05C18.1858 13.4558 18.2891 12.7591 18.32 11.6666M17.5 6.24996L14.1666 7.91663M14.1666 7.91663L13.75 8.12496L9.99996 9.99996M14.1666 7.91663V10.8333M14.1666 7.91663L6.24996 3.74996M9.99996 9.99996L2.49996 6.24996M9.99996 9.99996V17.9166" stroke="#222625" stroke-width="1.5" stroke-linecap="round"/>
</g>
<defs>
<clipPath id="clip0_2284_1045">
<rect width="20" height="20" fill="white"/>
</clipPath>
</defs>
</svg>
