<svg width="28" height="28" viewBox="0 0 28 28" fill="none" xmlns="http://www.w3.org/2000/svg">
<g id="material-symbols:verified-outline">
<path id="Vector" d="M11.0332 26.25L8.8165 22.5167L4.6165 21.5833L5.02484 17.2667L2.1665 14L5.02484 10.7333L4.6165 6.41667L8.8165 5.48333L11.0332 1.75L14.9998 3.44167L18.9665 1.75L21.1832 5.48333L25.3832 6.41667L24.9748 10.7333L27.8332 14L24.9748 17.2667L25.3832 21.5833L21.1832 22.5167L18.9665 26.25L14.9998 24.5583L11.0332 26.25ZM12.0248 23.275L14.9998 21.9917L18.0332 23.275L19.6665 20.475L22.8748 19.7167L22.5832 16.45L24.7415 14L22.5832 11.4917L22.8748 8.225L19.6665 7.525L17.9748 4.725L14.9998 6.00833L11.9665 4.725L10.3332 7.525L7.12484 8.225L7.4165 11.4917L5.25817 14L7.4165 16.45L7.12484 19.775L10.3332 20.475L12.0248 23.275ZM13.7748 18.1417L20.3665 11.55L18.7332 9.85833L13.7748 14.8167L11.2665 12.3667L9.63317 14L13.7748 18.1417Z" fill="#222625"/>
</g>
</svg>
