<svg width="46" height="48" viewBox="0 0 46 48" fill="none" xmlns="http://www.w3.org/2000/svg">
<g clip-path="url(#clip0_2656_1815)">
<rect width="46" height="48" rx="5" fill="#358838"/>
<path d="M38.1149 20.5657C37.0089 21.4093 35.1655 22.1347 32.5848 22.742C30.2722 23.2819 28.2362 23.5518 26.4766 23.5518H0V16.3902H27.3312C32.0067 16.3902 35.1237 15.4454 36.6821 13.5559C34.5874 12.105 32.5597 11.3796 30.599 11.3796C29.2584 11.3796 27.5491 11.8014 25.4711 12.6449V6.11592C26.8788 5.23864 28.6132 4.8 30.6744 4.8C31.9815 4.8 33.5149 5.17116 35.2745 5.91347C36.5984 6.50395 37.9222 7.09442 39.2461 7.6849C41.7263 8.61279 44.374 9.07674 47.1894 9.07674C47.6753 9.07674 48.0859 9.05143 48.4211 9.00082V15.2008C44.55 16.4999 41.1146 18.2882 38.1149 20.5657ZM35.3499 33.4971V26.9429H41.8101V33.4971H35.3499ZM26.9542 33.4971V26.9429H33.4143V33.4971H26.9542ZM31.152 42V35.4457H37.6122V42H31.152Z" fill="white"/>
</g>
<defs>
<clipPath id="clip0_2656_1815">
<rect width="46" height="48" rx="5" fill="white"/>
</clipPath>
</defs>
</svg>
