<svg width="33" height="33" viewBox="0 0 33 33" fill="none" xmlns="http://www.w3.org/2000/svg">
<path d="M16.5041 28.875C14.7936 28.875 13.1849 28.5505 11.6779 27.9015C10.1718 27.2516 8.86142 26.3698 7.74675 25.256C6.63208 24.1423 5.74979 22.8333 5.09988 21.329C4.44996 19.8247 4.125 18.2165 4.125 16.5041C4.125 14.7918 4.44996 13.183 5.09988 11.6779C5.74888 10.1718 6.62933 8.86142 7.74125 7.74675C8.85317 6.63208 10.1626 5.74979 11.6696 5.09988C13.1766 4.44996 14.7854 4.125 16.4959 4.125C18.2064 4.125 19.8151 4.44996 21.3221 5.09988C22.8282 5.74888 24.1386 6.62979 25.2532 7.74262C26.3679 8.85546 27.2502 10.1649 27.9001 11.671C28.55 13.1771 28.875 14.7854 28.875 16.4959C28.875 18.2064 28.5505 19.8151 27.9015 21.3221C27.2525 22.8291 26.3707 24.1395 25.256 25.2532C24.1413 26.367 22.8323 27.2493 21.329 27.9001C19.8257 28.551 18.2174 28.8759 16.5041 28.875ZM16.5 27.5C19.5708 27.5 22.1719 26.4344 24.3031 24.3031C26.4344 22.1719 27.5 19.5708 27.5 16.5C27.5 13.4292 26.4344 10.8281 24.3031 8.69687C22.1719 6.56562 19.5708 5.5 16.5 5.5C13.4292 5.5 10.8281 6.56562 8.69687 8.69687C6.56562 10.8281 5.5 13.4292 5.5 16.5C5.5 19.5708 6.56562 22.1719 8.69687 24.3031C10.8281 26.4344 13.4292 27.5 16.5 27.5ZM11.847 21.1544V18.1156L19.1785 10.8171C19.3142 10.6998 19.4544 10.6127 19.5992 10.5559C19.7432 10.5 19.8875 10.472 20.0324 10.472C20.1891 10.472 20.3436 10.5013 20.4958 10.56C20.6479 10.6187 20.7863 10.7071 20.911 10.8254L22.1829 12.1234C22.2956 12.26 22.3813 12.4011 22.44 12.5469C22.4996 12.6935 22.5294 12.8402 22.5294 12.9869C22.5294 13.1326 22.501 13.2797 22.4441 13.4282C22.3873 13.5767 22.3002 13.7193 22.1829 13.8559L14.8844 21.1544H11.847ZM20.0406 14.3L21.3125 12.9855L20.0406 11.6875L18.7344 12.9937L20.0406 14.3Z" fill="#236ED0"/>
</svg>
