<svg width="1402" height="1293" viewBox="0 0 1402 1293" fill="none" xmlns="http://www.w3.org/2000/svg">
<path d="M1232.37 151.231H1313.85V116.797H1232.37V151.231Z" fill="#EBEBEB"/>
<path d="M1360.38 108.95H1276.68V72.208H1360.38V108.95ZM1278.9 106.642H1358.07V74.5159H1278.99L1278.9 106.642Z" fill="#EBEBEB"/>
<path d="M1060.57 762.981H976.773V726.239H1060.57V762.981ZM979.081 760.673H1058.26V728.701H979.081V760.673Z" fill="#EBEBEB"/>
<path d="M1106.02 719.469H1022.22V682.82H1106.02V719.469ZM1024.53 717.162H1103.71V685.128H1024.53V717.162Z" fill="#EBEBEB"/>
<path d="M1068.66 761.843H1150.14V727.409H1068.66V761.843Z" fill="#EBEBEB"/>
<path d="M457.71 268.688H373.917V231.946H457.71V268.688ZM376.225 266.38H455.402V234.254H376.225V266.38Z" fill="#EBEBEB"/>
<path d="M420.321 310.969H501.806V276.535H420.321V310.969Z" fill="#EBEBEB"/>
<path d="M157.804 108.95H74.1035V72.208H157.804V108.95ZM76.3191 106.642H155.496V74.5159H76.3191V106.642Z" fill="#EBEBEB"/>
<path d="M203.347 1133.08H119.462V1096.34H203.347V1133.08ZM121.862 1130.77H200.947V1098.64H121.77L121.862 1130.77Z" fill="#EBEBEB"/>
<path d="M75.1501 1088.52H156.635V1054.09H75.1501V1088.52Z" fill="#EBEBEB"/>
<path d="M1232.37 1131.94H1313.85V1097.51H1232.37V1131.94Z" fill="#EBEBEB"/>
<path d="M238.181 1291.95H235.104V904.749L235.411 904.349L317.358 792.492V582.718H320.435V793.476L320.127 793.907L238.181 905.764V1291.95Z" fill="#EBEBEB"/>
<path d="M318.896 584.38C317.143 584.38 315.429 583.86 313.972 582.886C312.514 581.912 311.379 580.528 310.708 578.909C310.037 577.289 309.862 575.507 310.203 573.788C310.545 572.069 311.39 570.49 312.629 569.251C313.868 568.011 315.447 567.167 317.167 566.825C318.886 566.483 320.668 566.659 322.287 567.329C323.906 568 325.291 569.136 326.264 570.594C327.238 572.051 327.758 573.764 327.758 575.517C327.758 577.868 326.824 580.122 325.162 581.784C323.5 583.446 321.246 584.38 318.896 584.38ZM318.896 569.763C317.75 569.763 316.63 570.103 315.678 570.74C314.726 571.377 313.985 572.282 313.548 573.341C313.111 574.4 312.998 575.565 313.224 576.688C313.45 577.811 314.004 578.842 314.816 579.65C315.628 580.457 316.662 581.006 317.786 581.226C318.91 581.445 320.074 581.326 321.131 580.884C322.187 580.441 323.089 579.695 323.721 578.74C324.353 577.784 324.687 576.663 324.681 575.517C324.681 574.759 324.531 574.008 324.24 573.308C323.949 572.608 323.522 571.972 322.984 571.437C322.447 570.903 321.809 570.479 321.107 570.192C320.405 569.905 319.654 569.759 318.896 569.763Z" fill="#EBEBEB"/>
<path d="M259.352 1291.95H256.274V918.319L256.582 917.919L338.559 806.062V659.618H341.636V807.047L341.329 807.478L259.352 919.304V1291.95Z" fill="#EBEBEB"/>
<path d="M340.098 661.279C338.343 661.285 336.625 660.77 335.163 659.799C333.701 658.827 332.56 657.443 331.886 655.823C331.211 654.202 331.033 652.418 331.374 650.696C331.715 648.974 332.56 647.392 333.801 646.15C335.042 644.909 336.624 644.064 338.346 643.723C340.068 643.383 341.852 643.561 343.473 644.235C345.094 644.91 346.478 646.05 347.449 647.513C348.42 648.975 348.936 650.692 348.93 652.448C348.922 654.788 347.989 657.029 346.334 658.684C344.68 660.338 342.438 661.271 340.098 661.279ZM340.098 646.663C338.953 646.657 337.831 646.991 336.876 647.623C335.92 648.255 335.174 649.156 334.731 650.213C334.289 651.269 334.17 652.433 334.39 653.557C334.609 654.682 335.158 655.715 335.966 656.528C336.774 657.34 337.804 657.894 338.927 658.119C340.05 658.345 341.215 658.232 342.274 657.795C343.333 657.358 344.238 656.617 344.875 655.665C345.512 654.713 345.853 653.593 345.853 652.448C345.853 650.919 345.247 649.452 344.169 648.368C343.091 647.284 341.627 646.671 340.098 646.663Z" fill="#EBEBEB"/>
<path d="M217.778 779.875H214.701V1291.95H217.778V779.875Z" fill="#EBEBEB"/>
<path d="M216.24 781.414C214.486 781.42 212.769 780.905 211.308 779.935C209.846 778.965 208.706 777.583 208.03 775.964C207.355 774.345 207.175 772.562 207.513 770.841C207.852 769.12 208.693 767.538 209.932 766.296C211.17 765.053 212.749 764.206 214.469 763.862C216.189 763.517 217.972 763.691 219.593 764.361C221.215 765.031 222.601 766.166 223.576 767.624C224.551 769.083 225.071 770.797 225.071 772.551C225.071 774.896 224.142 777.146 222.487 778.807C220.831 780.468 218.585 781.406 216.24 781.414ZM216.24 766.797C215.093 766.791 213.97 767.126 213.014 767.759C212.058 768.392 211.312 769.296 210.87 770.354C210.429 771.412 210.311 772.578 210.534 773.703C210.756 774.828 211.307 775.862 212.118 776.673C212.929 777.484 213.963 778.035 215.088 778.258C216.213 778.48 217.379 778.363 218.437 777.921C219.496 777.479 220.399 776.733 221.032 775.777C221.665 774.821 222 773.698 221.994 772.551C221.986 771.028 221.377 769.569 220.3 768.491C219.222 767.414 217.764 766.805 216.24 766.797Z" fill="#EBEBEB"/>
<path d="M198.115 1291.95H195.038V1032.05L139.187 926.751V737.533H142.264V925.981L198.115 1031.31V1291.95Z" fill="#EBEBEB"/>
<path d="M140.726 739.071C138.973 739.071 137.259 738.552 135.802 737.578C134.345 736.604 133.209 735.22 132.538 733.601C131.867 731.981 131.692 730.199 132.034 728.48C132.376 726.761 133.22 725.182 134.459 723.942C135.698 722.703 137.278 721.859 138.997 721.517C140.716 721.175 142.498 721.35 144.117 722.021C145.737 722.692 147.121 723.828 148.094 725.285C149.068 726.743 149.588 728.456 149.588 730.209C149.588 732.559 148.654 734.814 146.992 736.476C145.33 738.138 143.076 739.071 140.726 739.071ZM140.726 724.455C139.58 724.455 138.46 724.795 137.508 725.432C136.556 726.069 135.815 726.974 135.378 728.033C134.941 729.092 134.828 730.257 135.054 731.38C135.28 732.503 135.834 733.534 136.646 734.341C137.458 735.149 138.492 735.698 139.616 735.918C140.74 736.137 141.904 736.018 142.961 735.576C144.018 735.133 144.919 734.387 145.551 733.431C146.183 732.476 146.517 731.355 146.511 730.209C146.511 729.451 146.361 728.7 146.07 728C145.779 727.3 145.352 726.664 144.815 726.129C144.277 725.594 143.639 725.171 142.937 724.884C142.236 724.596 141.484 724.451 140.726 724.455Z" fill="#EBEBEB"/>
<path d="M178.575 1291.95H175.497V1043.35L109.676 926.905V802.124H112.753V926.105L178.575 1042.55V1291.95Z" fill="#EBEBEB"/>
<path d="M111.214 803.662C109.459 803.668 107.741 803.153 106.279 802.181C104.817 801.21 103.676 799.826 103.002 798.206C102.327 796.585 102.149 794.8 102.49 793.078C102.831 791.356 103.676 789.774 104.917 788.533C106.158 787.292 107.74 786.447 109.462 786.106C111.184 785.765 112.969 785.943 114.589 786.618C116.21 787.293 117.594 788.433 118.565 789.895C119.537 791.357 120.052 793.075 120.046 794.831C120.038 797.17 119.105 799.412 117.45 801.066C115.796 802.721 113.554 803.654 111.214 803.662ZM111.214 789.045C110.069 789.039 108.947 789.373 107.992 790.005C107.037 790.637 106.29 791.539 105.848 792.595C105.405 793.652 105.286 794.816 105.506 795.94C105.726 797.065 106.274 798.098 107.082 798.91C107.89 799.722 108.921 800.276 110.044 800.502C111.167 800.728 112.331 800.615 113.39 800.178C114.449 799.741 115.355 799 115.992 798.048C116.629 797.096 116.969 795.976 116.969 794.831C116.969 793.302 116.364 791.835 115.285 790.751C114.207 789.667 112.743 789.054 111.214 789.045Z" fill="#EBEBEB"/>
<path d="M1207.81 1291.95H1204.73V720.116L1205.01 719.715L1286.99 607.859V398.085H1290.07V608.874L1207.81 721.131V1291.95Z" fill="#EBEBEB"/>
<path d="M1288.53 399.747C1286.77 399.753 1285.06 399.238 1283.59 398.268C1282.13 397.298 1280.99 395.916 1280.32 394.297C1279.64 392.678 1279.46 390.895 1279.8 389.174C1280.14 387.453 1280.98 385.871 1282.22 384.629C1283.46 383.386 1285.04 382.539 1286.76 382.195C1288.48 381.85 1290.26 382.024 1291.88 382.694C1293.5 383.364 1294.89 384.499 1295.86 385.957C1296.84 387.416 1297.36 389.13 1297.36 390.884C1297.36 393.229 1296.43 395.479 1294.77 397.14C1293.12 398.801 1290.87 399.739 1288.53 399.747ZM1288.53 385.13C1287.38 385.124 1286.26 385.459 1285.3 386.092C1284.35 386.725 1283.6 387.629 1283.16 388.687C1282.72 389.745 1282.6 390.911 1282.82 392.036C1283.04 393.161 1283.59 394.195 1284.41 395.006C1285.22 395.817 1286.25 396.368 1287.38 396.591C1288.5 396.813 1289.67 396.696 1290.72 396.254C1291.78 395.812 1292.69 395.066 1293.32 394.11C1293.95 393.154 1294.29 392.031 1294.28 390.884C1294.27 389.361 1293.66 387.902 1292.59 386.824C1291.51 385.747 1290.05 385.138 1288.53 385.13Z" fill="#EBEBEB"/>
<path d="M1228.98 1291.95H1225.91V733.686L1226.21 733.286L1308.16 621.399V474.985H1311.24V622.414L1228.98 734.671V1291.95Z" fill="#EBEBEB"/>
<path d="M1309.7 476.646C1307.94 476.646 1306.23 476.126 1304.77 475.151C1303.31 474.175 1302.18 472.79 1301.51 471.168C1300.84 469.547 1300.66 467.764 1301.01 466.044C1301.35 464.324 1302.2 462.745 1303.44 461.506C1304.69 460.268 1306.27 459.427 1307.99 459.088C1309.71 458.75 1311.49 458.93 1313.11 459.605C1314.73 460.281 1316.11 461.421 1317.08 462.883C1318.05 464.344 1318.57 466.061 1318.56 467.815C1318.55 470.16 1317.62 472.406 1315.95 474.062C1314.29 475.717 1312.04 476.646 1309.7 476.646ZM1309.7 462.03C1308.55 462.03 1307.44 462.369 1306.48 463.005C1305.53 463.64 1304.79 464.544 1304.35 465.601C1303.92 466.658 1303.8 467.821 1304.02 468.943C1304.25 470.066 1304.8 471.096 1305.61 471.906C1306.42 472.715 1307.45 473.266 1308.57 473.489C1309.69 473.712 1310.86 473.597 1311.91 473.16C1312.97 472.722 1313.87 471.98 1314.51 471.029C1315.14 470.077 1315.48 468.959 1315.48 467.815C1315.48 466.28 1314.87 464.809 1313.79 463.724C1312.7 462.639 1311.23 462.03 1309.7 462.03Z" fill="#EBEBEB"/>
<path d="M1187.41 595.242H1184.33V1291.95H1187.41V595.242Z" fill="#EBEBEB"/>
<path d="M1185.87 596.781C1184.12 596.787 1182.4 596.272 1180.94 595.302C1179.48 594.332 1178.34 592.95 1177.66 591.331C1176.99 589.712 1176.81 587.93 1177.14 586.208C1177.48 584.487 1178.32 582.905 1179.56 581.663C1180.8 580.42 1182.38 579.573 1184.1 579.229C1185.82 578.884 1187.6 579.058 1189.22 579.728C1190.85 580.398 1192.23 581.534 1193.21 582.992C1194.18 584.45 1194.7 586.164 1194.7 587.918C1194.7 590.264 1193.77 592.513 1192.12 594.174C1190.46 595.835 1188.22 596.773 1185.87 596.781ZM1185.87 582.164C1184.72 582.158 1183.6 582.493 1182.65 583.126C1181.69 583.76 1180.94 584.663 1180.5 585.721C1180.06 586.779 1179.94 587.945 1180.16 589.07C1180.39 590.195 1180.94 591.229 1181.75 592.04C1182.56 592.851 1183.59 593.402 1184.72 593.625C1185.84 593.847 1187.01 593.73 1188.07 593.288C1189.13 592.846 1190.03 592.1 1190.66 591.144C1191.3 590.188 1191.63 589.065 1191.63 587.918C1191.62 586.395 1191.01 584.936 1189.93 583.858C1188.85 582.781 1187.39 582.172 1185.87 582.164Z" fill="#EBEBEB"/>
<path d="M1167.75 1291.95H1164.67V847.42L1108.82 742.118V552.9H1111.89V741.348L1167.75 846.681V1291.95Z" fill="#EBEBEB"/>
<path d="M1110.36 554.438C1108.6 554.438 1106.89 553.919 1105.43 552.945C1103.97 551.971 1102.84 550.587 1102.17 548.967C1101.5 547.348 1101.32 545.566 1101.66 543.847C1102.01 542.128 1102.85 540.549 1104.09 539.309C1105.33 538.07 1106.91 537.226 1108.63 536.884C1110.35 536.542 1112.13 536.717 1113.75 537.388C1115.37 538.059 1116.75 539.195 1117.72 540.652C1118.7 542.11 1119.22 543.823 1119.22 545.576C1119.22 547.926 1118.28 550.181 1116.62 551.843C1114.96 553.505 1112.71 554.438 1110.36 554.438ZM1110.36 539.822C1109.21 539.822 1108.09 540.162 1107.14 540.799C1106.19 541.436 1105.44 542.341 1105.01 543.4C1104.57 544.459 1104.46 545.624 1104.68 546.747C1104.91 547.87 1105.46 548.901 1106.28 549.708C1107.09 550.516 1108.12 551.065 1109.25 551.285C1110.37 551.504 1111.53 551.385 1112.59 550.943C1113.65 550.5 1114.55 549.754 1115.18 548.798C1115.81 547.843 1116.15 546.722 1116.14 545.576C1116.14 544.818 1115.99 544.067 1115.7 543.367C1115.41 542.667 1114.98 542.031 1114.44 541.496C1113.91 540.961 1113.27 540.538 1112.57 540.251C1111.87 539.963 1111.11 539.818 1110.36 539.822Z" fill="#EBEBEB"/>
<path d="M1148.21 1291.95H1145.13V858.713L1079.31 742.272V617.49H1082.38V741.471L1148.21 857.913V1291.95Z" fill="#EBEBEB"/>
<path d="M1080.85 619.029C1079.09 619.035 1077.37 618.52 1075.91 617.548C1074.45 616.577 1073.31 615.193 1072.63 613.573C1071.96 611.952 1071.78 610.167 1072.12 608.445C1072.46 606.723 1073.31 605.141 1074.55 603.9C1075.79 602.659 1077.37 601.814 1079.09 601.473C1080.82 601.132 1082.6 601.31 1084.22 601.985C1085.84 602.659 1087.22 603.8 1088.2 605.262C1089.17 606.724 1089.68 608.442 1089.68 610.198C1089.67 612.537 1088.74 614.779 1087.08 616.433C1085.43 618.088 1083.19 619.021 1080.85 619.029ZM1080.85 604.412C1079.7 604.406 1078.58 604.74 1077.62 605.372C1076.67 606.004 1075.92 606.906 1075.48 607.962C1075.04 609.019 1074.92 610.183 1075.14 611.307C1075.36 612.431 1075.91 613.465 1076.71 614.277C1077.52 615.089 1078.55 615.643 1079.67 615.869C1080.8 616.095 1081.96 615.982 1083.02 615.545C1084.08 615.108 1084.99 614.367 1085.62 613.415C1086.26 612.463 1086.6 611.343 1086.6 610.198C1086.6 608.669 1085.99 607.202 1084.92 606.118C1083.84 605.034 1082.37 604.421 1080.85 604.412Z" fill="#EBEBEB"/>
<path d="M1250.31 408.363L1268.4 379.16L1259.48 373.621C1258.19 372.816 1257.16 371.671 1256.48 370.313C1255.81 368.955 1255.53 367.438 1255.66 365.928C1255.82 364.22 1255.88 362.504 1255.85 360.789C1255.8 359.281 1256.17 357.79 1256.92 356.48C1257.67 355.171 1258.77 354.096 1260.09 353.373L1269.32 348.419L1253.08 318.108L1243.85 323.093C1242.51 323.795 1241.01 324.114 1239.51 324.017C1238 323.919 1236.55 323.408 1235.32 322.54C1233.91 321.561 1232.45 320.658 1230.95 319.832C1229.62 319.112 1228.51 318.039 1227.75 316.73C1226.99 315.422 1226.61 313.929 1226.64 312.416L1226.98 301.891L1192.61 300.968L1192.3 311.523C1192.23 313.035 1191.75 314.499 1190.9 315.753C1190.06 317.008 1188.88 318.004 1187.5 318.631C1186.76 318.97 1185.99 319.37 1185.26 319.77C1184.52 320.17 1183.78 320.57 1183.07 321.001C1181.78 321.793 1180.3 322.213 1178.79 322.213C1177.28 322.213 1175.8 321.793 1174.52 321.001L1165.5 315.431L1147.41 344.634L1156.36 350.204C1157.64 351.011 1158.67 352.157 1159.34 353.515C1160.01 354.873 1160.29 356.39 1160.15 357.897C1159.99 359.594 1159.93 361.301 1159.99 363.005C1160.03 364.514 1159.64 366.004 1158.89 367.311C1158.14 368.619 1157.04 369.695 1155.71 370.421L1146.48 375.375L1162.73 405.686L1171.96 400.701C1173.3 399.999 1174.8 399.68 1176.3 399.778C1177.81 399.875 1179.25 400.387 1180.49 401.255C1181.89 402.234 1183.35 403.128 1184.86 403.932C1186.18 404.654 1187.29 405.728 1188.05 407.036C1188.81 408.344 1189.19 409.836 1189.16 411.348L1188.82 421.903L1223.2 422.98L1223.51 412.425C1223.57 410.92 1224.05 409.462 1224.89 408.212C1225.73 406.963 1226.9 405.971 1228.27 405.347L1230.55 404.178C1231.32 403.778 1232.06 403.378 1232.77 402.947C1234.06 402.156 1235.55 401.737 1237.06 401.737C1238.58 401.737 1240.06 402.156 1241.35 402.947L1250.31 408.363ZM1221.2 386.669C1216.29 389.288 1210.72 390.395 1205.19 389.849C1199.65 389.303 1194.4 387.129 1190.11 383.602C1185.81 380.074 1182.65 375.351 1181.03 370.03C1179.42 364.709 1179.42 359.028 1181.03 353.706C1182.64 348.384 1185.8 343.659 1190.09 340.128C1194.39 336.598 1199.64 334.421 1205.17 333.871C1210.7 333.322 1216.28 334.425 1221.18 337.042C1226.09 339.659 1230.11 343.671 1232.74 348.573C1234.48 351.831 1235.57 355.402 1235.94 359.081C1236.3 362.76 1235.94 366.475 1234.87 370.013C1233.79 373.551 1232.03 376.844 1229.69 379.702C1227.34 382.56 1224.46 384.927 1221.2 386.669Z" fill="#EBEBEB"/>
<path d="M260.368 709.284L278.492 680.081L269.538 674.542C268.257 673.743 267.225 672.602 266.556 671.249C265.888 669.895 265.61 668.382 265.753 666.88C265.845 665.168 265.845 663.453 265.753 661.741C265.705 660.229 266.08 658.734 266.835 657.424C267.591 656.113 268.697 655.04 270.03 654.325L279.262 649.34L263.014 619.029L253.782 624.014C252.443 624.715 250.936 625.034 249.428 624.936C247.919 624.838 246.466 624.328 245.228 623.46C243.819 622.482 242.361 621.578 240.858 620.752C239.524 620.036 238.416 618.963 237.655 617.654C236.894 616.344 236.512 614.85 236.55 613.336L237.196 602.843L202.855 601.766L202.547 612.321C202.479 613.833 201.995 615.297 201.148 616.551C200.301 617.805 199.124 618.801 197.746 619.429L195.469 620.568L193.284 621.829C191.998 622.606 190.525 623.016 189.022 623.016C187.52 623.016 186.047 622.606 184.761 621.829L175.652 616.29L157.466 645.616L166.42 651.063C167.706 651.865 168.741 653.01 169.41 654.369C170.079 655.729 170.355 657.248 170.205 658.756C170.205 660.448 170.021 662.172 170.205 663.864C170.253 665.376 169.878 666.871 169.123 668.181C168.367 669.492 167.261 670.565 165.928 671.28L156.696 676.265L172.944 706.545L182.176 701.591C183.511 700.879 185.017 700.551 186.527 700.643C188.037 700.736 189.492 701.245 190.73 702.114C192.128 703.092 193.576 703.996 195.069 704.822C196.403 705.539 197.512 706.611 198.272 707.92C199.033 709.23 199.415 710.724 199.377 712.238L199.07 722.762L233.411 723.839L233.75 713.284C233.81 711.778 234.288 710.318 235.13 709.069C235.973 707.819 237.146 706.828 238.519 706.207L240.797 705.068L242.981 703.806C244.273 703.015 245.759 702.596 247.274 702.596C248.789 702.596 250.275 703.015 251.567 703.806L260.368 709.284ZM231.288 687.743C226.38 690.374 220.803 691.491 215.26 690.952C209.718 690.413 204.46 688.243 200.151 684.716C195.842 681.189 192.676 676.463 191.052 671.136C189.429 665.81 189.421 660.122 191.03 654.791C192.639 649.46 195.793 644.726 200.092 641.187C204.392 637.649 209.644 635.464 215.185 634.91C220.726 634.357 226.306 635.458 231.221 638.076C236.136 640.693 240.164 644.71 242.797 649.617C246.289 656.186 247.039 663.872 244.882 670.993C242.726 678.113 237.838 684.091 231.288 687.62V687.743Z" fill="#EBEBEB"/>
<path d="M612.216 149.938L600.308 129.106L593.907 132.768C592.989 133.299 591.941 133.563 590.88 133.531C589.82 133.498 588.79 133.17 587.907 132.583C586.913 131.925 585.886 131.319 584.829 130.767C583.899 130.286 583.119 129.557 582.576 128.662C582.033 127.766 581.748 126.738 581.752 125.69V118.305H557.688V125.567C557.685 126.613 557.397 127.639 556.855 128.533C556.313 129.428 555.537 130.158 554.611 130.644C553.534 131.198 552.488 131.814 551.534 132.46C550.634 133.078 549.575 133.423 548.484 133.456C547.393 133.489 546.315 133.207 545.379 132.645L538.763 129.106L526.731 149.938L533.132 153.631C534.049 154.169 534.798 154.952 535.293 155.893C535.788 156.834 536.009 157.894 535.932 158.955C535.932 159.539 535.932 160.124 535.932 160.709C535.932 161.293 535.932 161.909 535.932 162.493C536.01 163.546 535.792 164.6 535.302 165.535C534.813 166.47 534.072 167.25 533.163 167.786L526.731 171.51L538.763 192.342L545.164 188.65C546.087 188.13 547.136 187.875 548.195 187.913C549.253 187.951 550.281 188.28 551.165 188.865C552.158 189.524 553.185 190.13 554.242 190.681C555.17 191.165 555.948 191.894 556.49 192.789C557.033 193.685 557.319 194.711 557.319 195.758V203.113H581.383V195.758C581.375 194.71 581.659 193.68 582.203 192.784C582.746 191.887 583.527 191.159 584.46 190.681C585.537 190.127 586.553 189.511 587.537 188.865C588.421 188.28 589.448 187.951 590.507 187.913C591.566 187.875 592.615 188.13 593.538 188.65L600.308 192.342L612.34 171.51L605.939 167.817C605.024 167.277 604.278 166.493 603.783 165.553C603.289 164.613 603.065 163.553 603.139 162.493C603.139 161.909 603.139 161.324 603.139 160.709C603.139 160.093 603.139 159.539 603.139 158.955C603.062 157.894 603.283 156.834 603.778 155.893C604.273 154.952 605.022 154.169 605.939 153.631L612.216 149.938ZM589.199 160.709C589.193 164.611 588.029 168.424 585.855 171.665C583.682 174.906 580.595 177.43 576.987 178.916C573.378 180.402 569.41 180.785 565.584 180.015C561.758 179.246 558.247 177.359 555.494 174.593C552.741 171.827 550.87 168.306 550.118 164.477C549.367 160.647 549.768 156.681 551.271 153.08C552.774 149.478 555.312 146.404 558.563 144.245C561.815 142.087 565.633 140.941 569.536 140.953C574.762 140.969 579.768 143.059 583.454 146.763C587.141 150.467 589.207 155.483 589.199 160.709Z" fill="#EBEBEB"/>
<path d="M950.249 628.076H231.35V1291.31H950.249V628.076Z" fill="#263238"/>
<path d="M1002.53 650.078H343.083V785.906H1002.53V650.078Z" fill="#37474F"/>
<path d="M214.671 785.906H343.083V650.078H214.671L214.671 785.906Z" fill="#455A64"/>
<path d="M773.893 672.511H367.854V683.989H773.893V672.511Z" fill="#455A64"/>
<path d="M773.893 692.39H367.854V703.868H773.893V692.39Z" fill="#455A64"/>
<path d="M773.893 712.238H367.854V723.716H773.893V712.238Z" fill="#455A64"/>
<path d="M773.893 732.116H367.854V743.595H773.893V732.116Z" fill="#455A64"/>
<path d="M773.893 751.995H367.854V763.473H773.893V751.995Z" fill="#455A64"/>
<path d="M834.945 683.866C834.951 686.119 834.289 688.323 833.041 690.2C831.794 692.076 830.018 693.54 827.938 694.407C825.858 695.273 823.568 695.503 821.357 695.067C819.147 694.632 817.115 693.55 815.52 691.958C813.924 690.367 812.837 688.339 812.395 686.129C811.953 683.92 812.177 681.629 813.038 679.547C813.898 677.464 815.358 675.684 817.231 674.432C819.104 673.18 821.306 672.511 823.559 672.511C826.574 672.511 829.465 673.706 831.6 675.835C833.734 677.963 834.937 680.852 834.945 683.866Z" fill="#FFC727"/>
<path d="M872.426 683.866C872.432 686.119 871.769 688.323 870.522 690.2C869.274 692.076 867.498 693.54 865.418 694.407C863.339 695.273 861.048 695.503 858.838 695.067C856.627 694.632 854.595 693.55 853 691.958C851.405 690.367 850.317 688.339 849.875 686.129C849.434 683.92 849.657 681.629 850.518 679.547C851.379 677.464 852.838 675.684 854.711 674.432C856.584 673.18 858.787 672.511 861.04 672.511C864.054 672.511 866.946 673.706 869.08 675.835C871.214 677.963 872.417 680.852 872.426 683.866Z" fill="#FFC727"/>
<path d="M909.906 683.866C909.912 686.119 909.25 688.323 908.002 690.2C906.755 692.076 904.979 693.54 902.899 694.407C900.819 695.273 898.529 695.503 896.318 695.067C894.107 694.632 892.076 693.55 890.481 691.958C888.885 690.367 887.798 688.339 887.356 686.129C886.914 683.92 887.138 681.629 887.999 679.547C888.859 677.464 890.319 675.684 892.192 674.432C894.065 673.18 896.267 672.511 898.52 672.511C901.535 672.511 904.426 673.706 906.561 675.835C908.695 677.963 909.898 680.852 909.906 683.866Z" fill="#263238"/>
<path d="M947.387 683.866C947.393 686.12 946.729 688.326 945.481 690.203C944.232 692.08 942.454 693.544 940.372 694.41C938.291 695.275 935.999 695.503 933.787 695.065C931.576 694.627 929.544 693.542 927.95 691.948C926.356 690.353 925.271 688.322 924.833 686.11C924.394 683.899 924.622 681.607 925.488 679.525C926.353 677.444 927.817 675.666 929.695 674.417C931.572 673.168 933.777 672.505 936.032 672.511C939.041 672.519 941.924 673.718 944.052 675.846C946.179 677.973 947.378 680.857 947.387 683.866Z" fill="#FFC727"/>
<path d="M984.96 683.866C984.966 686.12 984.303 688.326 983.054 690.203C981.805 692.08 980.027 693.544 977.945 694.41C975.864 695.275 973.572 695.503 971.36 695.065C969.149 694.627 967.117 693.542 965.523 691.948C963.929 690.353 962.844 688.322 962.406 686.11C961.967 683.899 962.195 681.607 963.061 679.525C963.927 677.444 965.391 675.666 967.268 674.417C969.145 673.168 971.35 672.505 973.605 672.511C976.614 672.519 979.497 673.718 981.625 675.846C983.753 677.973 984.952 680.857 984.96 683.866Z" fill="white"/>
<path d="M834.945 717.992C834.945 720.244 834.277 722.445 833.026 724.318C831.775 726.19 829.997 727.649 827.917 728.511C825.836 729.373 823.547 729.598 821.338 729.159C819.13 728.72 817.101 727.635 815.509 726.043C813.916 724.451 812.832 722.422 812.393 720.213C811.953 718.005 812.179 715.715 813.041 713.635C813.902 711.555 815.362 709.776 817.234 708.525C819.106 707.274 821.308 706.606 823.56 706.606C826.579 706.606 829.475 707.806 831.61 709.941C833.746 712.076 834.945 714.972 834.945 717.992Z" fill="#FFC727"/>
<path d="M872.426 717.992C872.426 720.244 871.758 722.445 870.507 724.318C869.256 726.19 867.478 727.649 865.397 728.511C863.317 729.373 861.027 729.598 858.819 729.159C856.61 728.72 854.581 727.635 852.989 726.043C851.397 724.451 850.312 722.422 849.873 720.213C849.434 718.005 849.659 715.715 850.521 713.635C851.383 711.555 852.842 709.776 854.714 708.525C856.587 707.274 858.788 706.606 861.04 706.606C864.06 706.606 866.956 707.806 869.091 709.941C871.226 712.076 872.426 714.972 872.426 717.992Z" fill="white"/>
<path d="M909.906 717.992C909.906 720.244 909.238 722.445 907.987 724.318C906.736 726.19 904.958 727.649 902.878 728.511C900.797 729.373 898.508 729.598 896.299 729.159C894.091 728.72 892.062 727.635 890.47 726.043C888.877 724.451 887.793 722.422 887.354 720.213C886.914 718.005 887.14 715.715 888.001 713.635C888.863 711.555 890.323 709.776 892.195 708.525C894.067 707.274 896.269 706.606 898.52 706.606C901.54 706.606 904.436 707.806 906.571 709.941C908.707 712.076 909.906 714.972 909.906 717.992Z" fill="#FFC727"/>
<path d="M947.387 717.992C947.387 720.245 946.718 722.448 945.466 724.321C944.213 726.194 942.433 727.653 940.351 728.514C938.269 729.375 935.978 729.599 933.768 729.157C931.559 728.715 929.53 727.628 927.939 726.032C926.348 724.437 925.266 722.405 924.83 720.194C924.394 717.984 924.624 715.694 925.491 713.614C926.357 711.534 927.821 709.758 929.698 708.51C931.574 707.263 933.779 706.6 936.032 706.606C937.525 706.606 939.005 706.901 940.384 707.474C941.764 708.046 943.017 708.885 944.072 709.943C945.127 711.001 945.962 712.256 946.531 713.637C947.1 715.019 947.391 716.498 947.387 717.992Z" fill="white"/>
<path d="M984.96 717.992C984.96 720.245 984.291 722.448 983.039 724.321C981.786 726.194 980.006 727.653 977.924 728.514C975.842 729.375 973.551 729.599 971.342 729.157C969.132 728.715 967.103 727.628 965.512 726.032C963.921 724.437 962.839 722.405 962.404 720.194C961.968 717.984 962.198 715.694 963.064 713.614C963.93 711.534 965.395 709.758 967.271 708.51C969.147 707.263 971.352 706.6 973.605 706.606C975.099 706.606 976.578 706.901 977.957 707.474C979.337 708.046 980.59 708.885 981.645 709.943C982.7 711.001 983.536 712.256 984.104 713.637C984.673 715.019 984.964 716.498 984.96 717.992Z" fill="#FFC727"/>
<path d="M834.945 752.088C834.951 754.341 834.289 756.545 833.041 758.422C831.794 760.298 830.018 761.762 827.938 762.629C825.858 763.495 823.568 763.725 821.357 763.289C819.147 762.853 817.115 761.771 815.52 760.18C813.924 758.589 812.837 756.561 812.395 754.351C811.953 752.142 812.177 749.851 813.038 747.769C813.898 745.686 815.358 743.906 817.231 742.654C819.104 741.401 821.306 740.733 823.559 740.733C826.574 740.733 829.465 741.928 831.6 744.057C833.734 746.185 834.937 749.074 834.945 752.088Z" fill="white"/>
<path d="M872.426 752.088C872.432 754.341 871.769 756.545 870.522 758.422C869.274 760.298 867.498 761.762 865.418 762.629C863.339 763.495 861.048 763.725 858.838 763.289C856.627 762.853 854.595 761.771 853 760.18C851.405 758.589 850.317 756.561 849.875 754.351C849.434 752.142 849.657 749.851 850.518 747.769C851.379 745.686 852.838 743.906 854.711 742.654C856.584 741.401 858.787 740.733 861.04 740.733C864.054 740.733 866.946 741.928 869.08 744.057C871.214 746.185 872.417 749.074 872.426 752.088Z" fill="#FFC727"/>
<path d="M909.906 752.088C909.912 754.341 909.25 756.545 908.002 758.422C906.755 760.298 904.979 761.762 902.899 762.629C900.819 763.495 898.529 763.725 896.318 763.289C894.107 762.853 892.076 761.771 890.481 760.18C888.885 758.589 887.798 756.561 887.356 754.351C886.914 752.142 887.138 749.851 887.999 747.769C888.859 745.686 890.319 743.906 892.192 742.654C894.065 741.401 896.267 740.733 898.52 740.733C901.535 740.733 904.426 741.928 906.561 744.057C908.695 746.185 909.898 749.074 909.906 752.088Z" fill="#FFC727"/>
<path d="M947.387 752.088C947.393 754.342 946.729 756.548 945.481 758.425C944.232 760.302 942.454 761.766 940.372 762.632C938.291 763.497 935.999 763.725 933.787 763.287C931.576 762.849 929.544 761.764 927.95 760.17C926.356 758.575 925.271 756.544 924.833 754.332C924.394 752.121 924.622 749.829 925.488 747.747C926.353 745.666 927.817 743.888 929.695 742.639C931.572 741.39 933.777 740.727 936.032 740.733C939.041 740.741 941.924 741.94 944.052 744.068C946.179 746.195 947.378 749.079 947.387 752.088Z" fill="#FFC727"/>
<path d="M984.96 752.088C984.966 754.342 984.303 756.548 983.054 758.425C981.805 760.302 980.027 761.766 977.945 762.632C975.864 763.497 973.572 763.725 971.36 763.287C969.149 762.849 967.117 761.764 965.523 760.17C963.929 758.575 962.844 756.544 962.406 754.332C961.967 752.121 962.195 749.829 963.061 747.747C963.927 745.666 965.391 743.888 967.268 742.639C969.145 741.39 971.35 740.727 973.605 740.733C976.614 740.741 979.497 741.94 981.625 744.068C983.753 746.195 984.952 749.079 984.96 752.088Z" fill="#263238"/>
<path d="M797.188 672.511H790.634V763.473H797.188V672.511Z" fill="#263238"/>
<path d="M1002.53 803.139H343.083V938.967H1002.53V803.139Z" fill="#37474F"/>
<path d="M214.671 938.967H343.083V803.139H214.671L214.671 938.967Z" fill="#455A64"/>
<path d="M773.893 825.572H367.854V837.049H773.893V825.572Z" fill="#455A64"/>
<path d="M773.893 845.45H367.854V856.928H773.893V845.45Z" fill="#455A64"/>
<path d="M773.893 865.329H367.854V876.807H773.893V865.329Z" fill="#455A64"/>
<path d="M773.893 885.177H367.854V896.655H773.893V885.177Z" fill="#455A64"/>
<path d="M773.893 905.056H367.854V916.534H773.893V905.056Z" fill="#455A64"/>
<path d="M834.945 836.926C834.951 839.18 834.289 841.384 833.041 843.26C831.794 845.137 830.018 846.601 827.938 847.467C825.858 848.334 823.568 848.564 821.357 848.128C819.147 847.692 817.115 846.61 815.52 845.019C813.924 843.428 812.837 841.399 812.395 839.19C811.953 836.98 812.177 834.689 813.038 832.607C813.898 830.525 815.358 828.745 817.231 827.493C819.104 826.24 821.306 825.572 823.559 825.572C826.574 825.572 829.465 826.767 831.6 828.895C833.734 831.024 834.937 833.912 834.945 836.926Z" fill="#FFC727"/>
<path d="M872.426 836.926C872.432 839.18 871.769 841.384 870.522 843.26C869.274 845.137 867.498 846.601 865.418 847.467C863.339 848.334 861.048 848.564 858.838 848.128C856.627 847.692 854.595 846.61 853 845.019C851.405 843.428 850.317 841.399 849.875 839.19C849.434 836.98 849.657 834.689 850.518 832.607C851.379 830.525 852.838 828.745 854.711 827.493C856.584 826.24 858.787 825.572 861.04 825.572C864.054 825.572 866.946 826.767 869.08 828.895C871.214 831.024 872.417 833.912 872.426 836.926Z" fill="#263238"/>
<path d="M909.906 836.926C909.912 839.18 909.25 841.384 908.002 843.26C906.755 845.137 904.979 846.601 902.899 847.467C900.819 848.334 898.529 848.564 896.318 848.128C894.107 847.692 892.076 846.61 890.481 845.019C888.885 843.428 887.798 841.399 887.356 839.19C886.914 836.98 887.138 834.689 887.999 832.607C888.859 830.525 890.319 828.745 892.192 827.493C894.065 826.24 896.267 825.572 898.52 825.572C901.535 825.572 904.426 826.767 906.561 828.895C908.695 831.024 909.898 833.912 909.906 836.926Z" fill="#FFC727"/>
<path d="M947.387 836.927C947.393 839.181 946.729 841.387 945.481 843.264C944.232 845.141 942.454 846.605 940.372 847.47C938.291 848.336 935.999 848.564 933.787 848.126C931.576 847.687 929.544 846.602 927.95 845.008C926.356 843.414 925.271 841.382 924.833 839.171C924.394 836.959 924.622 834.668 925.488 832.586C926.353 830.504 927.817 828.726 929.695 827.478C931.572 826.229 933.777 825.565 936.032 825.572C939.041 825.58 941.924 826.779 944.052 828.906C946.179 831.034 947.378 833.917 947.387 836.927Z" fill="#FFC727"/>
<path d="M984.96 836.927C984.966 839.181 984.303 841.387 983.054 843.264C981.805 845.141 980.027 846.605 977.945 847.47C975.864 848.336 973.572 848.564 971.36 848.126C969.149 847.687 967.117 846.602 965.523 845.008C963.929 843.414 962.844 841.382 962.406 839.171C961.967 836.959 962.195 834.668 963.061 832.586C963.927 830.504 965.391 828.726 967.268 827.478C969.145 826.229 971.35 825.565 973.605 825.572C976.614 825.58 979.497 826.779 981.625 828.906C983.753 831.034 984.952 833.917 984.96 836.927Z" fill="#FFC727"/>
<path d="M823.559 882.439C829.848 882.439 834.945 877.341 834.945 871.053C834.945 864.765 829.848 859.667 823.559 859.667C817.271 859.667 812.174 864.765 812.174 871.053C812.174 877.341 817.271 882.439 823.559 882.439Z" fill="#FFC727"/>
<path d="M872.426 871.053C872.426 873.305 871.758 875.506 870.507 877.379C869.256 879.251 867.478 880.71 865.397 881.572C863.317 882.434 861.027 882.659 858.819 882.22C856.61 881.781 854.581 880.696 852.989 879.104C851.397 877.511 850.312 875.483 849.873 873.274C849.434 871.066 849.659 868.776 850.521 866.696C851.383 864.615 852.842 862.837 854.714 861.586C856.587 860.335 858.788 859.667 861.04 859.667C864.06 859.667 866.956 860.867 869.091 863.002C871.226 865.137 872.426 868.033 872.426 871.053Z" fill="white"/>
<path d="M909.906 871.053C909.906 873.305 909.238 875.506 907.987 877.379C906.736 879.251 904.958 880.71 902.878 881.572C900.797 882.434 898.508 882.659 896.299 882.22C894.091 881.781 892.062 880.696 890.47 879.104C888.877 877.511 887.793 875.483 887.354 873.274C886.914 871.066 887.14 868.776 888.001 866.696C888.863 864.615 890.323 862.837 892.195 861.586C894.067 860.335 896.269 859.667 898.52 859.667C901.54 859.667 904.436 860.867 906.571 863.002C908.707 865.137 909.906 868.033 909.906 871.053Z" fill="#FFC727"/>
<path d="M947.387 871.053C947.387 873.306 946.718 875.509 945.466 877.382C944.213 879.255 942.433 880.714 940.351 881.575C938.269 882.436 935.978 882.659 933.768 882.218C931.559 881.776 929.53 880.688 927.939 879.093C926.348 877.498 925.266 875.466 924.83 873.255C924.394 871.045 924.624 868.754 925.491 866.674C926.357 864.595 927.821 862.818 929.698 861.571C931.574 860.324 933.779 859.661 936.032 859.667C937.525 859.667 939.005 859.962 940.384 860.535C941.764 861.107 943.017 861.946 944.072 863.004C945.127 864.062 945.962 865.317 946.531 866.698C947.1 868.079 947.391 869.559 947.387 871.053Z" fill="white"/>
<path d="M984.96 871.053C984.96 873.306 984.291 875.509 983.039 877.382C981.786 879.255 980.006 880.714 977.924 881.575C975.842 882.436 973.551 882.659 971.342 882.218C969.132 881.776 967.103 880.688 965.512 879.093C963.921 877.498 962.839 875.466 962.404 873.255C961.968 871.045 962.198 868.754 963.064 866.674C963.93 864.595 965.395 862.818 967.271 861.571C969.147 860.324 971.352 859.661 973.605 859.667C975.099 859.667 976.578 859.962 977.957 860.535C979.337 861.107 980.59 861.946 981.645 863.004C982.7 864.062 983.536 865.317 984.104 866.698C984.673 868.079 984.964 869.559 984.96 871.053Z" fill="#FFC727"/>
<path d="M834.945 905.148C834.951 907.402 834.289 909.606 833.041 911.482C831.794 913.359 830.018 914.823 827.938 915.689C825.858 916.556 823.568 916.786 821.357 916.35C819.147 915.914 817.115 914.832 815.52 913.241C813.924 911.65 812.837 909.621 812.395 907.412C811.953 905.202 812.177 902.911 813.038 900.829C813.898 898.747 815.358 896.967 817.231 895.714C819.104 894.462 821.306 893.793 823.559 893.793C826.574 893.793 829.465 894.989 831.6 897.117C833.734 899.246 834.937 902.134 834.945 905.148Z" fill="white"/>
<path d="M872.426 905.148C872.432 907.402 871.769 909.606 870.522 911.482C869.274 913.359 867.498 914.823 865.418 915.689C863.339 916.556 861.048 916.786 858.838 916.35C856.627 915.914 854.595 914.832 853 913.241C851.405 911.65 850.317 909.621 849.875 907.412C849.434 905.202 849.657 902.911 850.518 900.829C851.379 898.747 852.838 896.967 854.711 895.714C856.584 894.462 858.787 893.793 861.04 893.793C864.054 893.793 866.946 894.989 869.08 897.117C871.214 899.246 872.417 902.134 872.426 905.148Z" fill="#FFC727"/>
<path d="M909.906 905.148C909.912 907.402 909.25 909.606 908.002 911.482C906.755 913.359 904.979 914.823 902.899 915.689C900.819 916.556 898.529 916.786 896.318 916.35C894.107 915.914 892.076 914.832 890.481 913.241C888.885 911.65 887.798 909.621 887.356 907.412C886.914 905.202 887.138 902.911 887.999 900.829C888.859 898.747 890.319 896.967 892.192 895.714C894.065 894.462 896.267 893.793 898.52 893.793C901.535 893.793 904.426 894.989 906.561 897.117C908.695 899.246 909.898 902.134 909.906 905.148Z" fill="#FFC727"/>
<path d="M947.387 905.148C947.393 907.403 946.729 909.608 945.481 911.486C944.232 913.363 942.454 914.827 940.372 915.692C938.291 916.558 935.999 916.786 933.787 916.348C931.576 915.909 929.544 914.824 927.95 913.23C926.356 911.636 925.271 909.604 924.833 907.393C924.394 905.181 924.622 902.89 925.488 900.808C926.353 898.726 927.817 896.948 929.695 895.7C931.572 894.451 933.777 893.787 936.032 893.793C939.041 893.802 941.924 895.001 944.052 897.128C946.179 899.256 947.378 902.139 947.387 905.148Z" fill="#FFC727"/>
<path d="M984.96 905.148C984.966 907.403 984.303 909.608 983.054 911.486C981.805 913.363 980.027 914.827 977.945 915.692C975.864 916.558 973.572 916.786 971.36 916.348C969.149 915.909 967.117 914.824 965.523 913.23C963.929 911.636 962.844 909.604 962.406 907.393C961.967 905.181 962.195 902.89 963.061 900.808C963.927 898.726 965.391 896.948 967.268 895.7C969.145 894.451 971.35 893.787 973.605 893.793C976.614 893.802 979.497 895.001 981.625 897.128C983.753 899.256 984.952 902.139 984.96 905.148Z" fill="#263238"/>
<path d="M797.188 825.572H790.634V916.534H797.188V825.572Z" fill="#263238"/>
<path d="M1002.53 956.199H343.083V1092.03H1002.53V956.199Z" fill="#37474F"/>
<path d="M214.671 1092.03H343.083V956.199H214.671L214.671 1092.03Z" fill="#455A64"/>
<path d="M773.893 978.632H367.854V990.11H773.893V978.632Z" fill="#455A64"/>
<path d="M773.893 998.511H367.854V1009.99H773.893V998.511Z" fill="#455A64"/>
<path d="M773.893 1018.39H367.854V1029.87H773.893V1018.39Z" fill="#455A64"/>
<path d="M773.893 1038.24H367.854V1049.72H773.893V1038.24Z" fill="#455A64"/>
<path d="M773.893 1058.12H367.854V1069.59H773.893V1058.12Z" fill="#455A64"/>
<path d="M834.945 989.987C834.951 992.24 834.289 994.445 833.041 996.321C831.794 998.198 830.018 999.662 827.938 1000.53C825.858 1001.39 823.568 1001.62 821.357 1001.19C819.147 1000.75 817.115 999.671 815.52 998.08C813.924 996.489 812.837 994.46 812.395 992.251C811.953 990.041 812.177 987.75 813.038 985.668C813.898 983.586 815.358 981.806 817.231 980.553C819.104 979.301 821.306 978.632 823.559 978.632C826.574 978.632 829.465 979.828 831.6 981.956C833.734 984.085 834.937 986.973 834.945 989.987Z" fill="#FFC727"/>
<path d="M872.426 989.987C872.432 992.24 871.769 994.445 870.522 996.321C869.274 998.198 867.498 999.662 865.418 1000.53C863.339 1001.39 861.048 1001.62 858.838 1001.19C856.627 1000.75 854.595 999.671 853 998.08C851.405 996.489 850.317 994.46 849.875 992.251C849.434 990.041 849.657 987.75 850.518 985.668C851.379 983.586 852.838 981.806 854.711 980.553C856.584 979.301 858.787 978.632 861.04 978.632C864.054 978.632 866.946 979.828 869.08 981.956C871.214 984.085 872.417 986.973 872.426 989.987Z" fill="white"/>
<path d="M909.906 989.987C909.912 992.24 909.25 994.445 908.002 996.321C906.755 998.198 904.979 999.662 902.899 1000.53C900.819 1001.39 898.529 1001.62 896.318 1001.19C894.107 1000.75 892.076 999.671 890.481 998.08C888.885 996.489 887.798 994.46 887.356 992.251C886.914 990.041 887.138 987.75 887.999 985.668C888.859 983.586 890.319 981.806 892.192 980.553C894.065 979.301 896.267 978.632 898.52 978.632C901.535 978.632 904.426 979.828 906.561 981.956C908.695 984.085 909.898 986.973 909.906 989.987Z" fill="#FFC727"/>
<path d="M947.387 989.987C947.393 992.242 946.729 994.447 945.481 996.324C944.232 998.201 942.454 999.666 940.372 1000.53C938.291 1001.4 935.999 1001.62 933.787 1001.19C931.576 1000.75 929.544 999.663 927.95 998.069C926.356 996.475 925.271 994.443 924.833 992.232C924.394 990.02 924.622 987.728 925.488 985.647C926.353 983.565 927.817 981.787 929.695 980.538C931.572 979.29 933.777 978.626 936.032 978.632C939.041 978.64 941.924 979.839 944.052 981.967C946.179 984.095 947.378 986.978 947.387 989.987Z" fill="#FFC727"/>
<path d="M984.96 989.987C984.966 992.242 984.303 994.447 983.054 996.324C981.805 998.201 980.027 999.666 977.945 1000.53C975.864 1001.4 973.572 1001.62 971.36 1001.19C969.149 1000.75 967.117 999.663 965.523 998.069C963.929 996.475 962.844 994.443 962.406 992.232C961.967 990.02 962.195 987.728 963.061 985.647C963.927 983.565 965.391 981.787 967.268 980.538C969.145 979.29 971.35 978.626 973.605 978.632C976.614 978.64 979.497 979.839 981.625 981.967C983.753 984.095 984.952 986.978 984.96 989.987Z" fill="#FFC727"/>
<path d="M823.559 1035.5C829.848 1035.5 834.945 1030.4 834.945 1024.11C834.945 1017.83 829.848 1012.73 823.559 1012.73C817.271 1012.73 812.174 1017.83 812.174 1024.11C812.174 1030.4 817.271 1035.5 823.559 1035.5Z" fill="white"/>
<path d="M872.426 1024.11C872.426 1026.37 871.758 1028.57 870.507 1030.44C869.256 1032.31 867.478 1033.77 865.397 1034.63C863.317 1035.49 861.027 1035.72 858.819 1035.28C856.61 1034.84 854.581 1033.76 852.989 1032.16C851.397 1030.57 850.312 1028.54 849.873 1026.33C849.434 1024.13 849.659 1021.84 850.521 1019.76C851.383 1017.68 852.842 1015.9 854.714 1014.65C856.587 1013.4 858.788 1012.73 861.04 1012.73C864.06 1012.73 866.956 1013.93 869.091 1016.06C871.226 1018.2 872.426 1021.09 872.426 1024.11Z" fill="#263238"/>
<path d="M909.906 1024.11C909.906 1026.37 909.238 1028.57 907.987 1030.44C906.736 1032.31 904.958 1033.77 902.878 1034.63C900.797 1035.49 898.508 1035.72 896.299 1035.28C894.091 1034.84 892.062 1033.76 890.47 1032.16C888.877 1030.57 887.793 1028.54 887.354 1026.33C886.914 1024.13 887.14 1021.84 888.001 1019.76C888.863 1017.68 890.323 1015.9 892.195 1014.65C894.067 1013.4 896.269 1012.73 898.52 1012.73C901.54 1012.73 904.436 1013.93 906.571 1016.06C908.707 1018.2 909.906 1021.09 909.906 1024.11Z" fill="#FFC727"/>
<path d="M947.387 1024.11C947.387 1026.37 946.718 1028.57 945.466 1030.44C944.213 1032.32 942.433 1033.77 940.351 1034.64C938.269 1035.5 935.978 1035.72 933.768 1035.28C931.559 1034.84 929.53 1033.75 927.939 1032.15C926.348 1030.56 925.266 1028.53 924.83 1026.32C924.394 1024.11 924.624 1021.81 925.491 1019.74C926.357 1017.66 927.821 1015.88 929.698 1014.63C931.574 1013.38 933.779 1012.72 936.032 1012.73C937.525 1012.73 939.005 1013.02 940.384 1013.6C941.764 1014.17 943.017 1015.01 944.072 1016.06C945.127 1017.12 945.962 1018.38 946.531 1019.76C947.1 1021.14 947.391 1022.62 947.387 1024.11Z" fill="#263238"/>
<path d="M984.96 1024.11C984.96 1026.37 984.291 1028.57 983.039 1030.44C981.786 1032.32 980.006 1033.77 977.924 1034.64C975.842 1035.5 973.551 1035.72 971.342 1035.28C969.132 1034.84 967.103 1033.75 965.512 1032.15C963.921 1030.56 962.839 1028.53 962.404 1026.32C961.968 1024.11 962.198 1021.81 963.064 1019.74C963.93 1017.66 965.395 1015.88 967.271 1014.63C969.147 1013.38 971.352 1012.72 973.605 1012.73C975.099 1012.73 976.578 1013.02 977.957 1013.6C979.337 1014.17 980.59 1015.01 981.645 1016.06C982.7 1017.12 983.536 1018.38 984.104 1019.76C984.673 1021.14 984.964 1022.62 984.96 1024.11Z" fill="white"/>
<path d="M834.945 1058.21C834.951 1060.46 834.289 1062.67 833.041 1064.54C831.794 1066.42 830.018 1067.88 827.938 1068.75C825.858 1069.62 823.568 1069.85 821.357 1069.41C819.147 1068.97 817.115 1067.89 815.52 1066.3C813.924 1064.71 812.837 1062.68 812.395 1060.47C811.953 1058.26 812.177 1055.97 813.038 1053.89C813.898 1051.81 815.358 1050.03 817.231 1048.78C819.104 1047.52 821.306 1046.85 823.559 1046.85C826.574 1046.85 829.465 1048.05 831.6 1050.18C833.734 1052.31 834.937 1055.19 834.945 1058.21Z" fill="#FFC727"/>
<path d="M872.426 1058.21C872.432 1060.46 871.769 1062.67 870.522 1064.54C869.274 1066.42 867.498 1067.88 865.418 1068.75C863.339 1069.62 861.048 1069.85 858.838 1069.41C856.627 1068.97 854.595 1067.89 853 1066.3C851.405 1064.71 850.317 1062.68 849.875 1060.47C849.434 1058.26 849.657 1055.97 850.518 1053.89C851.379 1051.81 852.838 1050.03 854.711 1048.78C856.584 1047.52 858.787 1046.85 861.04 1046.85C864.054 1046.85 866.946 1048.05 869.08 1050.18C871.214 1052.31 872.417 1055.19 872.426 1058.21Z" fill="#FFC727"/>
<path d="M909.906 1058.21C909.912 1060.46 909.25 1062.67 908.002 1064.54C906.755 1066.42 904.979 1067.88 902.899 1068.75C900.819 1069.62 898.529 1069.85 896.318 1069.41C894.107 1068.97 892.076 1067.89 890.481 1066.3C888.885 1064.71 887.798 1062.68 887.356 1060.47C886.914 1058.26 887.138 1055.97 887.999 1053.89C888.859 1051.81 890.319 1050.03 892.192 1048.78C894.065 1047.52 896.267 1046.85 898.52 1046.85C901.535 1046.85 904.426 1048.05 906.561 1050.18C908.695 1052.31 909.898 1055.19 909.906 1058.21Z" fill="#FFC727"/>
<path d="M947.387 1058.21C947.393 1060.46 946.729 1062.67 945.481 1064.55C944.232 1066.42 942.454 1067.89 940.372 1068.75C938.291 1069.62 935.999 1069.85 933.787 1069.41C931.576 1068.97 929.544 1067.88 927.95 1066.29C926.356 1064.7 925.271 1062.67 924.833 1060.45C924.394 1058.24 924.622 1055.95 925.488 1053.87C926.353 1051.79 927.817 1050.01 929.695 1048.76C931.572 1047.51 933.777 1046.85 936.032 1046.85C939.041 1046.86 941.924 1048.06 944.052 1050.19C946.179 1052.32 947.378 1055.2 947.387 1058.21Z" fill="#FFC727"/>
<path d="M984.96 1058.21C984.966 1060.46 984.303 1062.67 983.054 1064.55C981.805 1066.42 980.027 1067.89 977.945 1068.75C975.864 1069.62 973.572 1069.85 971.36 1069.41C969.149 1068.97 967.117 1067.88 965.523 1066.29C963.929 1064.7 962.844 1062.67 962.406 1060.45C961.967 1058.24 962.195 1055.95 963.061 1053.87C963.927 1051.79 965.391 1050.01 967.268 1048.76C969.145 1047.51 971.35 1046.85 973.605 1046.85C976.614 1046.86 979.497 1048.06 981.625 1050.19C983.753 1052.32 984.952 1055.2 984.96 1058.21Z" fill="#FFC727"/>
<path d="M797.188 978.632H790.634V1069.59H797.188V978.632Z" fill="#263238"/>
<path d="M1002.53 1109.26H343.083V1245.09H1002.53V1109.26Z" fill="#37474F"/>
<path d="M214.671 1245.09H343.083V1109.26H214.671L214.671 1245.09Z" fill="#455A64"/>
<path d="M773.893 1131.69H367.854V1143.17H773.893V1131.69Z" fill="#455A64"/>
<path d="M773.893 1151.57H367.854V1163.05H773.893V1151.57Z" fill="#455A64"/>
<path d="M773.893 1171.45H367.854V1182.93H773.893V1171.45Z" fill="#455A64"/>
<path d="M773.893 1191.3H367.854V1202.78H773.893V1191.3Z" fill="#455A64"/>
<path d="M773.893 1211.18H367.854V1222.66H773.893V1211.18Z" fill="#455A64"/>
<path d="M834.945 1143.05C834.951 1145.3 834.289 1147.51 833.041 1149.38C831.794 1151.26 830.018 1152.72 827.938 1153.59C825.858 1154.46 823.568 1154.69 821.357 1154.25C819.147 1153.81 817.115 1152.73 815.52 1151.14C813.924 1149.55 812.837 1147.52 812.395 1145.31C811.953 1143.1 812.177 1140.81 813.038 1138.73C813.898 1136.65 815.358 1134.87 817.231 1133.61C819.104 1132.36 821.306 1131.69 823.559 1131.69C826.574 1131.69 829.465 1132.89 831.6 1135.02C833.734 1137.15 834.937 1140.03 834.945 1143.05Z" fill="white"/>
<path d="M872.426 1143.05C872.432 1145.3 871.769 1147.51 870.522 1149.38C869.274 1151.26 867.498 1152.72 865.418 1153.59C863.339 1154.46 861.048 1154.69 858.838 1154.25C856.627 1153.81 854.595 1152.73 853 1151.14C851.405 1149.55 850.317 1147.52 849.875 1145.31C849.434 1143.1 849.657 1140.81 850.518 1138.73C851.379 1136.65 852.838 1134.87 854.711 1133.61C856.584 1132.36 858.787 1131.69 861.04 1131.69C864.054 1131.69 866.946 1132.89 869.08 1135.02C871.214 1137.15 872.417 1140.03 872.426 1143.05Z" fill="#FFC727"/>
<path d="M909.906 1143.05C909.912 1145.3 909.25 1147.51 908.002 1149.38C906.755 1151.26 904.979 1152.72 902.899 1153.59C900.819 1154.46 898.529 1154.69 896.318 1154.25C894.107 1153.81 892.076 1152.73 890.481 1151.14C888.885 1149.55 887.798 1147.52 887.356 1145.31C886.914 1143.1 887.138 1140.81 887.999 1138.73C888.859 1136.65 890.319 1134.87 892.192 1133.61C894.065 1132.36 896.267 1131.69 898.52 1131.69C901.535 1131.69 904.426 1132.89 906.561 1135.02C908.695 1137.15 909.898 1140.03 909.906 1143.05Z" fill="#FFC727"/>
<path d="M947.387 1143.05C947.417 1145.31 946.775 1147.52 945.541 1149.42C944.307 1151.31 942.538 1152.79 940.459 1153.68C938.379 1154.56 936.084 1154.81 933.864 1154.38C931.645 1153.96 929.602 1152.89 927.995 1151.3C926.388 1149.71 925.291 1147.68 924.843 1145.46C924.394 1143.25 924.615 1140.95 925.477 1138.86C926.339 1136.77 927.802 1134.99 929.682 1133.73C931.562 1132.48 933.772 1131.81 936.032 1131.82C939.02 1131.82 941.885 1133.01 944.009 1135.11C946.133 1137.21 947.346 1140.06 947.387 1143.05Z" fill="#FFC727"/>
<path d="M984.96 1143.05C984.966 1145.3 984.303 1147.51 983.054 1149.38C981.805 1151.26 980.027 1152.73 977.945 1153.59C975.864 1154.46 973.572 1154.69 971.36 1154.25C969.149 1153.81 967.117 1152.72 965.523 1151.13C963.929 1149.54 962.844 1147.5 962.406 1145.29C961.967 1143.08 962.195 1140.79 963.061 1138.71C963.927 1136.63 965.391 1134.85 967.268 1133.6C969.145 1132.35 971.35 1131.69 973.605 1131.69C976.614 1131.7 979.497 1132.9 981.625 1135.03C983.753 1137.16 984.952 1140.04 984.96 1143.05Z" fill="#FFC727"/>
<path d="M834.945 1177.17C834.945 1179.43 834.277 1181.63 833.026 1183.5C831.775 1185.37 829.997 1186.83 827.917 1187.69C825.836 1188.56 823.547 1188.78 821.338 1188.34C819.13 1187.9 817.101 1186.82 815.509 1185.23C813.916 1183.63 812.832 1181.6 812.393 1179.4C811.953 1177.19 812.179 1174.9 813.041 1172.82C813.902 1170.74 815.362 1168.96 817.234 1167.71C819.106 1166.46 821.308 1165.79 823.56 1165.79C826.579 1165.79 829.475 1166.99 831.61 1169.12C833.746 1171.26 834.945 1174.15 834.945 1177.17Z" fill="#263238"/>
<path d="M872.426 1177.17C872.426 1179.43 871.758 1181.63 870.507 1183.5C869.256 1185.37 867.478 1186.83 865.397 1187.69C863.317 1188.56 861.027 1188.78 858.819 1188.34C856.61 1187.9 854.581 1186.82 852.989 1185.23C851.397 1183.63 850.312 1181.6 849.873 1179.4C849.434 1177.19 849.659 1174.9 850.521 1172.82C851.383 1170.74 852.842 1168.96 854.714 1167.71C856.587 1166.46 858.788 1165.79 861.04 1165.79C864.06 1165.79 866.956 1166.99 869.091 1169.12C871.226 1171.26 872.426 1174.15 872.426 1177.17Z" fill="#FFC727"/>
<path d="M909.906 1177.17C909.906 1179.43 909.238 1181.63 907.987 1183.5C906.736 1185.37 904.958 1186.83 902.878 1187.69C900.797 1188.56 898.508 1188.78 896.299 1188.34C894.091 1187.9 892.062 1186.82 890.47 1185.23C888.877 1183.63 887.793 1181.6 887.354 1179.4C886.914 1177.19 887.14 1174.9 888.001 1172.82C888.863 1170.74 890.323 1168.96 892.195 1167.71C894.067 1166.46 896.269 1165.79 898.52 1165.79C901.54 1165.79 904.436 1166.99 906.571 1169.12C908.707 1171.26 909.906 1174.15 909.906 1177.17Z" fill="white"/>
<path d="M947.387 1177.17C947.387 1179.43 946.718 1181.63 945.466 1183.5C944.213 1185.38 942.433 1186.84 940.351 1187.7C938.269 1188.56 935.978 1188.78 933.768 1188.34C931.559 1187.9 929.53 1186.81 927.939 1185.21C926.348 1183.62 925.266 1181.59 924.83 1179.38C924.394 1177.17 924.624 1174.88 925.491 1172.8C926.357 1170.72 927.821 1168.94 929.698 1167.69C931.574 1166.45 933.779 1165.78 936.032 1165.79C937.525 1165.79 939.005 1166.08 940.384 1166.66C941.764 1167.23 943.017 1168.07 944.072 1169.13C945.127 1170.18 945.962 1171.44 946.531 1172.82C947.1 1174.2 947.391 1175.68 947.387 1177.17Z" fill="#263238"/>
<path d="M984.96 1177.17C984.96 1179.43 984.291 1181.63 983.039 1183.5C981.786 1185.38 980.006 1186.84 977.924 1187.7C975.842 1188.56 973.551 1188.78 971.342 1188.34C969.132 1187.9 967.103 1186.81 965.512 1185.21C963.921 1183.62 962.839 1181.59 962.404 1179.38C961.968 1177.17 962.198 1174.88 963.064 1172.8C963.93 1170.72 965.395 1168.94 967.271 1167.69C969.147 1166.45 971.352 1165.78 973.605 1165.79C975.099 1165.79 976.578 1166.08 977.957 1166.66C979.337 1167.23 980.59 1168.07 981.645 1169.13C982.7 1170.18 983.536 1171.44 984.104 1172.82C984.673 1174.2 984.964 1175.68 984.96 1177.17Z" fill="#FFC727"/>
<path d="M834.945 1211.27C834.951 1213.52 834.289 1215.73 833.041 1217.6C831.794 1219.48 830.018 1220.94 827.938 1221.81C825.858 1222.68 823.568 1222.91 821.357 1222.47C819.147 1222.04 817.115 1220.95 815.52 1219.36C813.924 1217.77 812.837 1215.74 812.395 1213.53C811.953 1211.32 812.177 1209.03 813.038 1206.95C813.898 1204.87 815.358 1203.09 817.231 1201.84C819.104 1200.58 821.306 1199.91 823.559 1199.91C826.574 1199.91 829.465 1201.11 831.6 1203.24C833.734 1205.37 834.937 1208.26 834.945 1211.27Z" fill="#FFC727"/>
<path d="M872.426 1211.27C872.432 1213.52 871.769 1215.73 870.522 1217.6C869.274 1219.48 867.498 1220.94 865.418 1221.81C863.339 1222.68 861.048 1222.91 858.838 1222.47C856.627 1222.04 854.595 1220.95 853 1219.36C851.405 1217.77 850.317 1215.74 849.875 1213.53C849.434 1211.32 849.657 1209.03 850.518 1206.95C851.379 1204.87 852.838 1203.09 854.711 1201.84C856.584 1200.58 858.787 1199.91 861.04 1199.91C864.054 1199.91 866.946 1201.11 869.08 1203.24C871.214 1205.37 872.417 1208.26 872.426 1211.27Z" fill="#263238"/>
<path d="M909.906 1211.27C909.912 1213.52 909.25 1215.73 908.002 1217.6C906.755 1219.48 904.979 1220.94 902.899 1221.81C900.819 1222.68 898.529 1222.91 896.318 1222.47C894.107 1222.04 892.076 1220.95 890.481 1219.36C888.885 1217.77 887.798 1215.74 887.356 1213.53C886.914 1211.32 887.138 1209.03 887.999 1206.95C888.859 1204.87 890.319 1203.09 892.192 1201.84C894.065 1200.58 896.267 1199.91 898.52 1199.91C901.535 1199.91 904.426 1201.11 906.561 1203.24C908.695 1205.37 909.898 1208.26 909.906 1211.27Z" fill="#FFC727"/>
<path d="M947.387 1211.27C947.393 1213.52 946.729 1215.73 945.481 1217.61C944.232 1219.48 942.454 1220.95 940.372 1221.81C938.291 1222.68 935.999 1222.91 933.787 1222.47C931.576 1222.03 929.544 1220.95 927.95 1219.35C926.356 1217.76 925.271 1215.73 924.833 1213.51C924.394 1211.3 924.622 1209.01 925.488 1206.93C926.353 1204.85 927.817 1203.07 929.695 1201.82C931.572 1200.57 933.777 1199.91 936.032 1199.91C939.043 1199.91 941.931 1201.11 944.061 1203.24C946.19 1205.37 947.387 1208.26 947.387 1211.27Z" fill="#FFC727"/>
<path d="M984.96 1211.27C984.966 1213.52 984.303 1215.73 983.054 1217.61C981.805 1219.48 980.027 1220.95 977.945 1221.81C975.864 1222.68 973.572 1222.91 971.36 1222.47C969.149 1222.03 967.117 1220.95 965.523 1219.35C963.929 1217.76 962.844 1215.73 962.406 1213.51C961.967 1211.3 962.195 1209.01 963.061 1206.93C963.927 1204.85 965.391 1203.07 967.268 1201.82C969.145 1200.57 971.35 1199.91 973.605 1199.91C976.616 1199.91 979.505 1201.11 981.634 1203.24C983.763 1205.37 984.96 1208.26 984.96 1211.27Z" fill="white"/>
<path d="M797.188 1131.69H790.634V1222.66H797.188V1131.69Z" fill="#263238"/>
<path d="M61.333 1291.31L225.318 1290.54L389.303 1290.29L717.242 1289.77L1045.18 1290.26L1209.17 1290.54L1373.15 1291.31L1209.17 1292.05L1045.18 1292.32L717.242 1292.85L389.303 1292.32L225.318 1292.05L61.333 1291.31Z" fill="#263238"/>
<path d="M753.738 628.076H323.912L290.647 336.141H720.473L753.738 628.076Z" fill="#A6A6A6"/>
<path d="M730.32 608.505H342.868L314.065 355.742H701.518L730.32 608.505Z" fill="#37474F"/>
<path d="M506.391 490.894L502.452 495.571L463.587 462.03L467.557 457.352L506.391 490.894Z" fill="#FFC727"/>
<path d="M496.39 457.352L501.837 462.03L473.588 495.571L468.172 490.894L496.39 457.352Z" fill="#FFC727"/>
<path d="M589.445 490.894L585.506 495.571L546.641 462.03L550.61 457.352L589.445 490.894Z" fill="#FFC727"/>
<path d="M579.445 457.352L584.891 462.03L556.642 495.571L551.227 490.894L579.445 457.352Z" fill="#FFC727"/>
<path d="M458.632 523.112L457.586 516.496H608.154L609.2 523.112H458.632Z" fill="#FFC727"/>
<path d="M879.873 608.505H326.928V628.076H879.873V608.505Z" fill="#A6A6A6"/>
<path d="M926.554 608.505H447.001V628.076H926.554V608.505Z" fill="#C7C7C7"/>
<path d="M702.902 367.99L701.518 355.742H314.065L315.45 367.99H702.902Z" fill="#263238"/>
<path d="M346.683 361.866C346.734 362.666 347.075 363.419 347.641 363.986C348.208 364.552 348.961 364.893 349.761 364.943C350.132 364.929 350.496 364.834 350.826 364.664C351.157 364.495 351.447 364.255 351.675 363.962C351.904 363.669 352.066 363.33 352.15 362.968C352.233 362.606 352.237 362.23 352.161 361.866C352.104 361.069 351.761 360.319 351.196 359.754C350.631 359.189 349.881 358.846 349.084 358.789C348.712 358.804 348.349 358.899 348.018 359.068C347.687 359.238 347.398 359.477 347.169 359.77C346.941 360.063 346.779 360.403 346.695 360.765C346.611 361.127 346.607 361.503 346.683 361.866Z" fill="#C7C7C7"/>
<path d="M335.452 361.866C335.509 362.664 335.852 363.413 336.417 363.979C336.982 364.544 337.732 364.886 338.529 364.943C338.901 364.929 339.264 364.834 339.595 364.664C339.926 364.495 340.215 364.255 340.444 363.962C340.672 363.669 340.834 363.33 340.918 362.968C341.002 362.606 341.006 362.23 340.929 361.866C340.872 361.069 340.53 360.319 339.965 359.754C339.399 359.189 338.649 358.846 337.852 358.789C337.481 358.804 337.117 358.899 336.787 359.068C336.456 359.238 336.166 359.477 335.938 359.77C335.709 360.063 335.547 360.403 335.463 360.765C335.38 361.127 335.376 361.503 335.452 361.866Z" fill="white"/>
<path d="M324.251 361.866C324.308 362.664 324.65 363.413 325.216 363.979C325.781 364.544 326.531 364.886 327.328 364.943C327.702 364.933 328.069 364.841 328.403 364.674C328.738 364.506 329.031 364.267 329.263 363.974C329.495 363.68 329.66 363.339 329.745 362.975C329.831 362.611 329.836 362.232 329.759 361.866C329.696 361.071 329.351 360.325 328.787 359.761C328.223 359.197 327.477 358.852 326.682 358.789C326.308 358.799 325.941 358.891 325.606 359.059C325.272 359.226 324.978 359.465 324.746 359.759C324.514 360.052 324.35 360.393 324.264 360.758C324.178 361.122 324.174 361.5 324.251 361.866Z" fill="#FFC727"/>
<path d="M826.668 609.951C827.682 605.017 829.262 600.215 831.376 595.642C833.457 591.008 836.148 586.671 839.377 582.749C842.649 578.696 846.879 575.523 851.686 573.517C856.646 571.657 862.112 571.657 867.072 573.517C872.063 575.584 876.041 579.529 878.15 584.503C879.26 586.915 879.967 589.493 880.242 592.134C880.586 594.865 880.28 597.637 879.35 600.227C878.8 601.674 877.823 602.918 876.55 603.797C875.852 604.249 875.065 604.543 874.242 604.659C873.373 604.8 872.483 604.716 871.657 604.412C870.214 603.726 869.051 602.563 868.364 601.12C867.734 599.905 867.239 598.626 866.887 597.304C865.669 592.272 865.233 587.083 865.595 581.918C866.157 571.6 869.231 561.575 874.549 552.715C877.282 548.276 880.895 544.443 885.166 541.452C889.449 538.449 894.405 536.547 899.598 535.914C904.683 534.968 909.899 534.968 914.984 535.914C920.013 536.923 924.839 538.764 929.262 541.36C937.924 546.656 945.193 553.947 950.464 562.624C944.767 554.383 937.263 547.552 928.524 542.653C919.88 537.796 909.787 536.181 900.06 538.098C895.279 538.912 890.735 540.763 886.748 543.523C882.76 546.282 879.426 549.882 876.98 554.069C872.009 562.566 869.179 572.145 868.734 581.979C868.337 586.826 868.69 591.704 869.78 596.442C870.334 598.627 871.441 601.089 872.857 601.674C873.233 601.744 873.619 601.744 873.996 601.674C874.411 601.611 874.809 601.465 875.165 601.243C875.96 600.672 876.571 599.88 876.919 598.966C878.18 594.433 877.807 589.601 875.866 585.315C873.926 581.028 870.541 577.561 866.303 575.517C861.881 573.659 856.929 573.495 852.394 575.056C847.829 576.837 843.772 579.711 840.577 583.426C833.958 591.077 829.198 600.156 826.668 609.951Z" fill="#263238"/>
<path d="M370.809 401.901C361.035 399.755 350.902 399.86 341.175 402.208C336.419 403.327 332.012 405.599 328.343 408.824C324.806 412.115 322.614 416.598 322.189 421.41C321.968 426.157 323.539 430.814 326.589 434.458C329.397 438.222 333.535 440.775 338.159 441.597C339.135 441.727 340.126 441.543 340.99 441.074C341.36 440.874 341.676 440.589 341.914 440.243C342.141 439.935 342.289 439.575 342.344 439.197C342.344 437.75 340.775 435.627 339.052 434.15C335.377 430.988 331.222 428.433 326.743 426.58C317.812 422.455 308.009 420.575 298.186 421.103C293.367 421.368 288.665 422.688 284.411 424.969C280.158 427.25 276.456 430.436 273.569 434.304C267.401 442.056 264.213 451.761 264.583 461.66C264.898 471.669 267.509 481.471 272.215 490.309C266.9 481.653 263.735 471.851 262.983 461.722C262.701 456.606 263.273 451.479 264.675 446.551C266.122 441.6 268.469 436.958 271.599 432.857C274.549 428.541 278.511 425.013 283.139 422.58C287.761 420.157 292.829 418.701 298.032 418.302C308.337 417.657 318.644 419.526 328.066 423.749C332.84 425.796 337.263 428.579 341.175 431.996C342.204 432.903 343.114 433.937 343.883 435.073C344.847 436.347 345.356 437.907 345.329 439.504C345.206 440.351 344.889 441.158 344.403 441.862C343.918 442.567 343.276 443.15 342.529 443.566C341.162 444.295 339.604 444.585 338.067 444.397C335.337 444.06 332.729 443.068 330.466 441.504C328.243 440.045 326.269 438.237 324.62 436.15C321.185 431.983 319.518 426.637 319.973 421.256C320.517 415.94 323.017 411.015 326.989 407.44C330.961 404.107 335.698 401.813 340.775 400.762C345.749 399.716 350.839 399.323 355.915 399.593C360.952 399.785 365.95 400.56 370.809 401.901Z" fill="#263238"/>
<path d="M764.508 503.48C764.446 499.374 765.234 495.299 766.822 491.513C768.411 487.726 770.766 484.309 773.74 481.478C776.771 478.559 780.518 476.489 784.603 475.477C788.745 474.538 793.059 474.686 797.127 475.908C801.155 477.112 804.9 479.11 808.143 481.785C811.474 484.414 814.184 487.745 816.083 491.54C817.185 493.614 817.564 495.996 817.16 498.31C816.827 499.657 815.975 500.819 814.79 501.541C813.713 502.206 812.485 502.588 811.221 502.649C809.898 502.654 808.607 502.245 807.528 501.479C806.566 500.771 805.751 499.883 805.128 498.864C804.016 496.961 803.245 494.878 802.851 492.709C802.112 488.578 802.112 484.348 802.851 480.216C803.469 476.091 804.66 472.072 806.389 468.276C809.789 460.52 816.002 454.341 823.776 450.982C827.678 449.368 831.861 448.542 836.084 448.551C840.236 448.593 844.341 449.428 848.178 451.013C851.941 452.601 855.455 454.726 858.61 457.321C861.792 459.826 864.636 462.733 867.072 465.968C861.787 459.955 855.11 455.327 847.624 452.49C843.972 451.102 840.081 450.455 836.176 450.587C832.272 450.719 828.433 451.628 824.883 453.259C817.793 456.521 812.167 462.301 809.097 469.476C805.873 476.561 804.803 484.437 806.02 492.125C806.302 493.945 806.917 495.698 807.836 497.294C808.144 497.983 808.633 498.575 809.251 499.008C809.868 499.442 810.591 499.7 811.344 499.756C812.104 499.722 812.844 499.5 813.498 499.11C813.776 498.948 814.018 498.731 814.209 498.472C814.4 498.212 814.535 497.916 814.606 497.602C814.858 495.921 814.555 494.203 813.744 492.709C810.154 485.835 803.993 480.659 796.604 478.308C792.938 477.123 789.033 476.88 785.249 477.6C781.449 478.361 777.921 480.125 775.032 482.708C771.996 485.306 769.502 488.478 767.696 492.043C765.89 495.608 764.807 499.495 764.508 503.48Z" fill="#263238"/>
<path d="M996.807 604.012C1000.72 598.726 1002.99 592.397 1003.31 585.826C1003.63 579.254 1001.99 572.735 998.606 567.093C995.221 561.451 990.239 556.94 984.29 554.13C978.341 551.319 971.693 550.336 965.185 551.304C958.677 552.273 952.603 555.149 947.73 559.57C942.857 563.991 939.405 569.757 937.809 576.14C936.214 582.523 936.547 589.236 938.767 595.43C940.987 601.623 944.993 607.02 950.28 610.936C957.368 616.187 966.252 618.408 974.977 617.109C983.703 615.811 991.555 611.1 996.807 604.012ZM982.591 593.457C980.762 595.928 978.241 597.801 975.347 598.839C972.453 599.878 969.317 600.034 966.334 599.289C963.351 598.544 960.657 596.931 958.591 594.654C956.525 592.377 955.181 589.539 954.729 586.498C954.277 583.457 954.737 580.351 956.05 577.571C957.364 574.792 959.473 572.465 962.109 570.884C964.746 569.303 967.793 568.54 970.863 568.691C973.934 568.842 976.89 569.9 979.359 571.732C982.66 574.191 984.853 577.857 985.458 581.928C986.064 585.999 985.033 590.144 982.591 593.457Z" fill="#A6A6A6"/>
<path d="M956.219 613.613L945.941 606.012L941.109 613.705L950.28 620.475L956.219 613.613Z" fill="#A6A6A6"/>
<path d="M939.232 595.642L937.355 582.995L928.523 585.026L930.185 596.288L939.232 595.642Z" fill="#A6A6A6"/>
<path d="M939.94 570.932L947.572 560.654L939.879 555.823L933.078 564.962L939.94 570.932Z" fill="#A6A6A6"/>
<path d="M957.911 553.946L970.559 552.069L968.559 543.206L957.296 544.868L957.911 553.946Z" fill="#A6A6A6"/>
<path d="M982.651 554.623L992.898 562.254L997.73 554.561L988.621 547.792L982.651 554.623Z" fill="#A6A6A6"/>
<path d="M999.638 572.625L1001.51 585.272L1010.35 583.241L1008.68 571.979L999.638 572.625Z" fill="#A6A6A6"/>
<path d="M998.93 597.335L991.299 607.613L998.992 612.444L1005.79 603.305L998.93 597.335Z" fill="#A6A6A6"/>
<path d="M980.959 614.321L968.281 616.198L970.312 625.06L981.575 623.399L980.959 614.321Z" fill="#A6A6A6"/>
<path d="M958.188 585.795L965.234 594.719L976.497 593.027L980.682 582.472L973.635 573.548L962.373 575.21L958.188 585.795ZM971.573 581.241C972.143 581.667 972.574 582.252 972.812 582.923C973.049 583.594 973.083 584.32 972.908 585.009C972.733 585.699 972.358 586.322 971.83 586.798C971.301 587.275 970.644 587.584 969.939 587.687C969.235 587.79 968.517 587.682 967.874 587.377C967.231 587.072 966.693 586.583 966.328 585.972C965.963 585.362 965.787 584.656 965.822 583.946C965.858 583.235 966.103 582.551 966.527 581.979C967.102 581.218 967.954 580.713 968.899 580.575C969.843 580.437 970.804 580.676 971.573 581.241Z" fill="#A6A6A6"/>
<path d="M876.487 463.445C875.462 462.778 874.261 462.432 873.039 462.451C871.816 462.47 870.626 462.852 869.622 463.55C868.617 464.247 867.844 465.229 867.399 466.368C866.955 467.507 866.86 468.753 867.126 469.947C867.393 471.14 868.009 472.227 868.896 473.069C869.783 473.911 870.901 474.469 872.107 474.673C873.313 474.877 874.552 474.717 875.667 474.213C876.781 473.709 877.72 472.885 878.364 471.846C879.212 470.478 879.49 468.833 879.139 467.263C878.788 465.692 877.836 464.322 876.487 463.445ZM877.749 471.446C877.186 472.345 876.369 473.057 875.401 473.491C874.433 473.926 873.358 474.063 872.312 473.885C871.266 473.707 870.297 473.223 869.527 472.493C868.757 471.763 868.221 470.821 867.987 469.786C867.753 468.751 867.832 467.671 868.213 466.681C868.595 465.691 869.262 464.836 870.13 464.226C870.998 463.616 872.028 463.277 873.088 463.253C874.149 463.229 875.193 463.521 876.087 464.091C876.68 464.464 877.194 464.951 877.598 465.522C878.003 466.094 878.29 466.74 878.445 467.423C878.599 468.107 878.617 468.814 878.498 469.504C878.378 470.194 878.124 470.854 877.749 471.446ZM876.487 463.445C875.462 462.778 874.261 462.432 873.039 462.451C871.816 462.47 870.626 462.852 869.622 463.55C868.617 464.247 867.844 465.229 867.399 466.368C866.955 467.507 866.86 468.753 867.126 469.947C867.393 471.14 868.009 472.227 868.896 473.069C869.783 473.911 870.901 474.469 872.107 474.673C873.313 474.877 874.552 474.717 875.667 474.213C876.781 473.709 877.72 472.885 878.364 471.846C879.212 470.478 879.49 468.833 879.139 467.263C878.788 465.692 877.836 464.322 876.487 463.445ZM877.749 471.446C877.186 472.345 876.369 473.057 875.401 473.491C874.433 473.926 873.358 474.063 872.312 473.885C871.266 473.707 870.297 473.223 869.527 472.493C868.757 471.763 868.221 470.821 867.987 469.786C867.753 468.751 867.832 467.671 868.213 466.681C868.595 465.691 869.262 464.836 870.13 464.226C870.998 463.616 872.028 463.277 873.088 463.253C874.149 463.229 875.193 463.521 876.087 464.091C876.68 464.464 877.194 464.951 877.598 465.522C878.003 466.094 878.29 466.74 878.445 467.423C878.599 468.107 878.617 468.814 878.498 469.504C878.378 470.194 878.124 470.854 877.749 471.446ZM876.487 463.445C875.462 462.778 874.261 462.432 873.039 462.451C871.816 462.47 870.626 462.852 869.622 463.55C868.617 464.247 867.844 465.229 867.399 466.368C866.955 467.507 866.86 468.753 867.126 469.947C867.393 471.14 868.009 472.227 868.896 473.069C869.783 473.911 870.901 474.469 872.107 474.673C873.313 474.877 874.552 474.717 875.667 474.213C876.781 473.709 877.72 472.885 878.364 471.846C879.212 470.478 879.49 468.833 879.139 467.263C878.788 465.692 877.836 464.322 876.487 463.445ZM877.749 471.446C877.186 472.345 876.369 473.057 875.401 473.491C874.433 473.926 873.358 474.063 872.312 473.885C871.266 473.707 870.297 473.223 869.527 472.493C868.757 471.763 868.221 470.821 867.987 469.786C867.753 468.751 867.832 467.671 868.213 466.681C868.595 465.691 869.262 464.836 870.13 464.226C870.998 463.616 872.028 463.277 873.088 463.253C874.149 463.229 875.193 463.521 876.087 464.091C876.68 464.464 877.194 464.951 877.598 465.522C878.003 466.094 878.29 466.74 878.445 467.423C878.599 468.107 878.617 468.814 878.498 469.504C878.378 470.194 878.124 470.854 877.749 471.446ZM880.057 457.752C877.913 456.407 875.418 455.728 872.888 455.8C870.358 455.873 867.907 456.693 865.843 458.159C863.779 459.624 862.196 461.668 861.294 464.033C860.392 466.398 860.211 468.977 860.774 471.444C861.337 473.912 862.619 476.157 864.458 477.896C866.297 479.636 868.61 480.791 871.105 481.216C873.6 481.641 876.165 481.316 878.476 480.284C880.787 479.252 882.74 477.557 884.088 475.415C885.85 472.552 886.415 469.111 885.66 465.835C884.906 462.558 882.893 459.71 880.057 457.906V457.752ZM879.165 472.338C878.422 473.509 877.349 474.434 876.081 474.996C874.813 475.557 873.407 475.731 872.041 475.494C870.674 475.257 869.409 474.62 868.404 473.664C867.399 472.708 866.7 471.476 866.395 470.123C866.09 468.771 866.193 467.358 866.691 466.063C867.188 464.769 868.058 463.651 869.191 462.851C870.323 462.05 871.668 461.604 873.054 461.567C874.44 461.53 875.806 461.905 876.98 462.645C877.761 463.137 878.437 463.778 878.97 464.532C879.502 465.286 879.881 466.138 880.084 467.038C880.287 467.938 880.31 468.87 880.152 469.78C879.995 470.689 879.659 471.558 879.165 472.338ZM878.364 471.846C879.03 470.818 879.374 469.615 879.353 468.391C879.331 467.167 878.945 465.977 878.244 464.974C877.542 463.97 876.557 463.199 875.415 462.758C874.273 462.317 873.025 462.227 871.832 462.499C870.638 462.771 869.552 463.393 868.714 464.285C867.876 465.178 867.322 466.3 867.125 467.508C866.928 468.716 867.096 469.956 867.607 471.069C868.118 472.181 868.949 473.116 869.995 473.754C871.363 474.588 873.004 474.856 874.567 474.5C876.13 474.144 877.493 473.191 878.364 471.846ZM877.749 471.446C877.186 472.345 876.369 473.057 875.401 473.491C874.433 473.926 873.358 474.063 872.312 473.885C871.266 473.707 870.297 473.223 869.527 472.493C868.757 471.763 868.221 470.821 867.987 469.786C867.753 468.751 867.832 467.671 868.213 466.681C868.595 465.691 869.262 464.836 870.13 464.226C870.998 463.616 872.028 463.277 873.088 463.253C874.149 463.229 875.193 463.521 876.087 464.091C876.68 464.464 877.194 464.951 877.598 465.522C878.003 466.094 878.29 466.74 878.445 467.423C878.599 468.107 878.617 468.814 878.498 469.504C878.378 470.194 878.124 470.854 877.749 471.446ZM876.487 463.445C875.462 462.778 874.261 462.432 873.039 462.451C871.816 462.47 870.626 462.852 869.622 463.55C868.617 464.247 867.844 465.229 867.399 466.368C866.955 467.507 866.86 468.753 867.126 469.947C867.393 471.14 868.009 472.227 868.896 473.069C869.783 473.911 870.901 474.469 872.107 474.673C873.313 474.877 874.552 474.717 875.667 474.213C876.781 473.709 877.72 472.885 878.364 471.846C879.212 470.478 879.49 468.833 879.139 467.263C878.788 465.692 877.836 464.322 876.487 463.445ZM877.749 471.446C877.186 472.345 876.369 473.057 875.401 473.491C874.433 473.926 873.358 474.063 872.312 473.885C871.266 473.707 870.297 473.223 869.527 472.493C868.757 471.763 868.221 470.821 867.987 469.786C867.753 468.751 867.832 467.671 868.213 466.681C868.595 465.691 869.262 464.836 870.13 464.226C870.998 463.616 872.028 463.277 873.088 463.253C874.149 463.229 875.193 463.521 876.087 464.091C876.68 464.464 877.194 464.951 877.598 465.522C878.003 466.094 878.29 466.74 878.445 467.423C878.599 468.107 878.617 468.814 878.498 469.504C878.378 470.194 878.124 470.854 877.749 471.446ZM876.487 463.445C875.462 462.778 874.261 462.432 873.039 462.451C871.816 462.47 870.626 462.852 869.622 463.55C868.617 464.247 867.844 465.229 867.399 466.368C866.955 467.507 866.86 468.753 867.126 469.947C867.393 471.14 868.009 472.227 868.896 473.069C869.783 473.911 870.901 474.469 872.107 474.673C873.313 474.877 874.552 474.717 875.667 474.213C876.781 473.709 877.72 472.885 878.364 471.846C879.212 470.478 879.49 468.833 879.139 467.263C878.788 465.692 877.836 464.322 876.487 463.445ZM877.749 471.446C877.186 472.345 876.369 473.057 875.401 473.491C874.433 473.926 873.358 474.063 872.312 473.885C871.266 473.707 870.297 473.223 869.527 472.493C868.757 471.763 868.221 470.821 867.987 469.786C867.753 468.751 867.832 467.671 868.213 466.681C868.595 465.691 869.262 464.836 870.13 464.226C870.998 463.616 872.028 463.277 873.088 463.253C874.149 463.229 875.193 463.521 876.087 464.091C876.68 464.464 877.194 464.951 877.598 465.522C878.003 466.094 878.29 466.74 878.445 467.423C878.599 468.107 878.617 468.814 878.498 469.504C878.378 470.194 878.124 470.854 877.749 471.446Z" fill="#A6A6A6"/>
<path d="M868.794 480.308L864.61 477.692L862.979 480.77L866.702 483.108L868.794 480.308Z" fill="#A6A6A6"/>
<path d="M861.717 473.908L860.64 469.107L857.286 470.153L858.271 474.431L861.717 473.908Z" fill="#A6A6A6"/>
<path d="M861.255 464.399L863.871 460.214L860.794 458.583L858.455 462.306L861.255 464.399Z" fill="#A6A6A6"/>
<path d="M867.656 457.352L872.457 456.244L871.411 452.921L867.164 453.875L867.656 457.352Z" fill="#A6A6A6"/>
<path d="M877.165 456.86L881.35 459.506L882.981 456.398L879.258 454.06L877.165 456.86Z" fill="#A6A6A6"/>
<path d="M884.212 463.26L885.32 468.092L888.643 467.045L887.689 462.768L884.212 463.26Z" fill="#A6A6A6"/>
<path d="M884.704 472.8L882.058 476.954L885.166 478.585L887.504 474.862L884.704 472.8Z" fill="#A6A6A6"/>
<path d="M878.304 479.847L873.473 480.924L874.519 484.278L878.796 483.293L878.304 479.847Z" fill="#A6A6A6"/>
<path d="M273.569 492.032C271.863 491.487 270.033 491.46 268.311 491.956C266.59 492.451 265.054 493.447 263.899 494.816C262.744 496.185 262.021 497.867 261.823 499.647C261.624 501.428 261.959 503.227 262.784 504.817C263.609 506.407 264.888 507.717 266.458 508.579C268.029 509.442 269.82 509.818 271.604 509.662C273.389 509.506 275.087 508.823 276.483 507.7C277.879 506.578 278.911 505.066 279.447 503.356C280.162 501.075 279.945 498.604 278.844 496.482C277.743 494.36 275.846 492.76 273.569 492.032ZM278.4 503.018C277.931 504.518 277.026 505.844 275.802 506.83C274.577 507.815 273.088 508.415 271.522 508.553C269.956 508.691 268.385 508.361 267.007 507.606C265.629 506.85 264.506 505.702 263.781 504.308C263.056 502.913 262.761 501.335 262.933 499.773C263.106 498.211 263.738 496.735 264.75 495.532C265.762 494.33 267.108 493.455 268.618 493.018C270.127 492.581 271.733 492.602 273.231 493.078C274.224 493.39 275.146 493.895 275.943 494.563C276.741 495.232 277.399 496.052 277.879 496.975C278.359 497.898 278.653 498.907 278.742 499.944C278.832 500.981 278.715 502.026 278.4 503.018ZM273.569 492.032C271.863 491.487 270.033 491.46 268.311 491.956C266.59 492.451 265.054 493.447 263.899 494.816C262.744 496.185 262.021 497.867 261.823 499.647C261.624 501.428 261.959 503.227 262.784 504.817C263.609 506.407 264.888 507.717 266.458 508.579C268.029 509.442 269.82 509.818 271.604 509.662C273.389 509.506 275.087 508.823 276.483 507.7C277.879 506.578 278.911 505.066 279.447 503.356C280.162 501.075 279.945 498.604 278.844 496.482C277.743 494.36 275.846 492.76 273.569 492.032ZM278.4 503.018C277.931 504.518 277.026 505.844 275.802 506.83C274.577 507.815 273.088 508.415 271.522 508.553C269.956 508.691 268.385 508.361 267.007 507.606C265.629 506.85 264.506 505.702 263.781 504.308C263.056 502.913 262.761 501.335 262.933 499.773C263.106 498.211 263.738 496.735 264.75 495.532C265.762 494.33 267.108 493.455 268.618 493.018C270.127 492.581 271.733 492.602 273.231 493.078C274.224 493.39 275.146 493.895 275.943 494.563C276.741 495.232 277.399 496.052 277.879 496.975C278.359 497.898 278.653 498.907 278.742 499.944C278.832 500.981 278.715 502.026 278.4 503.018ZM273.569 492.032C271.863 491.487 270.033 491.46 268.311 491.956C266.59 492.451 265.054 493.447 263.899 494.816C262.744 496.185 262.021 497.867 261.823 499.647C261.624 501.428 261.959 503.227 262.784 504.817C263.609 506.407 264.888 507.717 266.458 508.579C268.029 509.442 269.82 509.818 271.604 509.662C273.389 509.506 275.087 508.823 276.483 507.7C277.879 506.578 278.911 505.066 279.447 503.356C280.162 501.075 279.945 498.604 278.844 496.482C277.743 494.36 275.846 492.76 273.569 492.032ZM278.4 503.018C277.931 504.518 277.026 505.844 275.802 506.83C274.577 507.815 273.088 508.415 271.522 508.553C269.956 508.691 268.385 508.361 267.007 507.606C265.629 506.85 264.506 505.702 263.781 504.308C263.056 502.913 262.761 501.335 262.933 499.773C263.106 498.211 263.738 496.735 264.75 495.532C265.762 494.33 267.108 493.455 268.618 493.018C270.127 492.581 271.733 492.602 273.231 493.078C274.224 493.39 275.146 493.895 275.943 494.563C276.741 495.232 277.399 496.052 277.879 496.975C278.359 497.898 278.653 498.907 278.742 499.944C278.832 500.981 278.715 502.026 278.4 503.018ZM276.554 482.462C272.966 481.306 269.115 481.241 265.489 482.275C261.864 483.309 258.627 485.395 256.188 488.27C253.749 491.145 252.218 494.679 251.789 498.425C251.36 502.17 252.052 505.959 253.777 509.311C255.503 512.663 258.185 515.427 261.482 517.254C264.78 519.081 268.546 519.889 272.303 519.574C276.06 519.259 279.639 517.837 282.587 515.487C285.535 513.137 287.719 509.964 288.863 506.372C290.365 501.577 289.915 496.383 287.611 491.918C285.306 487.453 281.333 484.077 276.554 482.524V482.462ZM280.801 503.787C280.178 505.752 278.987 507.489 277.377 508.777C275.768 510.066 273.814 510.849 271.76 511.027C269.706 511.206 267.646 510.772 265.838 509.78C264.031 508.789 262.558 507.284 261.606 505.456C260.653 503.628 260.263 501.558 260.486 499.509C260.708 497.46 261.533 495.522 262.856 493.941C264.179 492.36 265.94 491.206 267.918 490.626C269.896 490.045 272.002 490.063 273.969 490.678C276.607 491.52 278.805 493.37 280.085 495.826C281.365 498.281 281.622 501.143 280.801 503.787ZM279.447 503.356C279.986 501.649 280.007 499.82 279.507 498.101C279.006 496.381 278.007 494.849 276.635 493.698C275.263 492.548 273.581 491.83 271.801 491.636C270.021 491.442 268.223 491.78 266.636 492.608C265.048 493.437 263.742 494.717 262.883 496.288C262.024 497.86 261.65 499.65 261.809 501.434C261.969 503.217 262.653 504.913 263.777 506.307C264.901 507.702 266.413 508.731 268.123 509.265C269.254 509.622 270.445 509.753 271.627 509.65C272.809 509.546 273.959 509.21 275.011 508.662C276.063 508.113 276.997 507.361 277.758 506.451C278.519 505.541 279.093 504.489 279.447 503.356ZM278.4 503.018C277.931 504.518 277.026 505.844 275.802 506.83C274.577 507.815 273.088 508.415 271.522 508.553C269.956 508.691 268.385 508.361 267.007 507.606C265.629 506.85 264.506 505.702 263.781 504.308C263.056 502.913 262.761 501.335 262.933 499.773C263.106 498.211 263.738 496.735 264.75 495.532C265.762 494.33 267.108 493.455 268.618 493.018C270.127 492.581 271.733 492.602 273.231 493.078C274.224 493.39 275.146 493.895 275.943 494.563C276.741 495.232 277.399 496.052 277.879 496.975C278.359 497.898 278.653 498.907 278.742 499.944C278.832 500.981 278.715 502.026 278.4 503.018ZM273.569 492.032C271.863 491.487 270.033 491.46 268.311 491.956C266.59 492.451 265.054 493.447 263.899 494.816C262.744 496.185 262.021 497.867 261.823 499.647C261.624 501.428 261.959 503.227 262.784 504.817C263.609 506.407 264.888 507.717 266.458 508.579C268.029 509.442 269.82 509.818 271.604 509.662C273.389 509.506 275.087 508.823 276.483 507.7C277.879 506.578 278.911 505.066 279.447 503.356C280.162 501.075 279.945 498.604 278.844 496.482C277.743 494.36 275.846 492.76 273.569 492.032ZM278.4 503.018C277.931 504.518 277.026 505.844 275.802 506.83C274.577 507.815 273.088 508.415 271.522 508.553C269.956 508.691 268.385 508.361 267.007 507.606C265.629 506.85 264.506 505.702 263.781 504.308C263.056 502.913 262.761 501.335 262.933 499.773C263.106 498.211 263.738 496.735 264.75 495.532C265.762 494.33 267.108 493.455 268.618 493.018C270.127 492.581 271.733 492.602 273.231 493.078C274.224 493.39 275.146 493.895 275.943 494.563C276.741 495.232 277.399 496.052 277.879 496.975C278.359 497.898 278.653 498.907 278.742 499.944C278.832 500.981 278.715 502.026 278.4 503.018ZM273.569 492.032C271.863 491.487 270.033 491.46 268.311 491.956C266.59 492.451 265.054 493.447 263.899 494.816C262.744 496.185 262.021 497.867 261.823 499.647C261.624 501.428 261.959 503.227 262.784 504.817C263.609 506.407 264.888 507.717 266.458 508.579C268.029 509.442 269.82 509.818 271.604 509.662C273.389 509.506 275.087 508.823 276.483 507.7C277.879 506.578 278.911 505.066 279.447 503.356C280.162 501.075 279.945 498.604 278.844 496.482C277.743 494.36 275.846 492.76 273.569 492.032ZM278.4 503.018C277.931 504.518 277.026 505.844 275.802 506.83C274.577 507.815 273.088 508.415 271.522 508.553C269.956 508.691 268.385 508.361 267.007 507.606C265.629 506.85 264.506 505.702 263.781 504.308C263.056 502.913 262.761 501.335 262.933 499.773C263.106 498.211 263.738 496.735 264.75 495.532C265.762 494.33 267.108 493.455 268.618 493.018C270.127 492.581 271.733 492.602 273.231 493.078C274.224 493.39 275.146 493.895 275.943 494.563C276.741 495.232 277.399 496.052 277.879 496.975C278.359 497.898 278.653 498.907 278.742 499.944C278.832 500.981 278.715 502.026 278.4 503.018Z" fill="#A6A6A6"/>
<path d="M268.83 519.173L261.845 516.958L260.676 522.035L266.892 523.974L268.83 519.173Z" fill="#A6A6A6"/>
<path d="M256.275 512.619L252.89 506.126L248.489 508.865L251.505 514.65L256.275 512.619Z" fill="#A6A6A6"/>
<path d="M252.028 499.11L254.244 492.125L249.167 490.955L247.197 497.171L252.028 499.11Z" fill="#A6A6A6"/>
<path d="M258.583 486.555L265.076 483.17L262.306 478.77L256.552 481.754L258.583 486.555Z" fill="#A6A6A6"/>
<path d="M272.092 482.308L279.077 484.493L280.246 479.446L274.03 477.477L272.092 482.308Z" fill="#A6A6A6"/>
<path d="M284.647 488.863L288.032 495.356L292.433 492.586L289.417 486.801L284.647 488.863Z" fill="#A6A6A6"/>
<path d="M288.893 502.341L286.678 509.326L291.755 510.496L293.725 504.31L288.893 502.341Z" fill="#A6A6A6"/>
<path d="M282.339 514.896L275.846 518.281L278.615 522.712L284.37 519.696L282.339 514.896Z" fill="#A6A6A6"/>
</svg>
