<svg width="226" height="73" viewBox="0 0 226 73" fill="none" xmlns="http://www.w3.org/2000/svg">
<path d="M115.528 44.8047C114.48 45.5995 112.733 46.283 110.287 46.8552C108.095 47.3639 106.166 47.6182 104.498 47.6182H100.257V40.8705H105.308C109.739 40.8705 112.693 39.9804 114.17 38.2001C112.185 36.8331 110.263 36.1495 108.405 36.1495C107.135 36.1495 105.515 36.5469 103.545 37.3417V31.1901C104.879 30.3636 106.523 29.9503 108.477 29.9503C109.715 29.9503 111.169 30.3 112.836 30.9994C114.091 31.5557 115.346 32.1121 116.6 32.6684C118.951 33.5427 121.46 33.9798 124.129 33.9798C124.589 33.9798 124.978 33.956 125.296 33.9083V39.7499C121.627 40.9738 118.371 42.6588 115.528 44.8047ZM112.908 56.9886V50.8132H119.03V56.9886H112.908ZM104.951 56.9886V50.8132H111.073V56.9886H104.951ZM108.929 65V58.8246H115.052V65H108.929Z" fill="white"/>
<path d="M94.921 47.6182C94.1428 47.6182 93.5234 47.3798 93.0628 46.9029C92.7928 46.6327 92.5387 46.2035 92.3004 45.6154C92.1098 45.1385 91.951 44.9001 91.824 44.9001C91.7763 44.9001 91.2998 45.3531 90.3945 46.2591C89.4892 47.1652 88.5998 47.6182 87.7263 47.6182H81.151V40.8705H86.7972C88.9095 40.8705 90.7757 38.5339 92.3957 33.8606L97.351 36.1734C97.3192 36.3482 96.9778 36.9523 96.3266 37.9855C95.6913 39.0187 95.3737 39.7419 95.3737 40.1552C95.3737 40.6321 95.7151 40.8705 96.3981 40.8705H101.21V47.6182H94.921ZM90.061 56.9886V50.8132H96.1837V56.9886H90.061ZM82.1278 56.9886V50.8132H88.2504V56.9886H82.1278Z" fill="white"/>
<path d="M82.4851 47.6182H77.8395C76.7913 47.6182 76.0289 47.1413 75.5525 46.1876C75.076 45.218 74.7663 44.7332 74.6233 44.7332C74.5439 44.7332 74.0992 44.9875 73.2892 45.4961C72.3204 46.0843 71.1769 46.5452 69.8586 46.8791C67.9051 47.3718 65.483 47.6182 62.5924 47.6182C60.5913 47.6182 59.2095 47.5387 58.4471 47.3798V40.8705H69.9539C71.3674 40.8705 72.0742 40.5129 72.0742 39.7976C72.0742 39.6863 72.0583 39.5671 72.0266 39.4399C70.6448 34.703 68.4213 29.9105 65.356 25.0624L70.8116 22.0104C73.7657 27.4944 76.0051 33.3758 77.5298 39.6545C77.7204 40.4652 78.4669 40.8705 79.7692 40.8705H82.4851V47.6182Z" fill="white"/>
<path d="M35.2589 39.9883C35.2589 39.3843 34.838 38.7326 33.9962 38.0332C33.2339 37.4132 32.4556 36.9841 31.6615 36.7456L30.2321 40.489C31.2645 41.109 32.3127 41.4189 33.3768 41.4189C34.6315 41.4189 35.2589 40.9421 35.2589 39.9883ZM40.5953 42.2773C40.0395 46.283 37.8636 48.2858 34.0677 48.2858C33.4006 48.2858 32.7098 48.2063 31.995 48.0474C30.4545 47.7295 29.4142 47.2764 28.8742 46.6883C28.493 46.2591 28.1833 45.4485 27.945 44.2563C25.8009 46.4976 23.5774 47.6182 21.2744 47.6182H19.988V40.8705H21.3459C23.5059 40.8705 24.9512 40.1711 25.6818 38.7723C26.0471 38.057 26.4997 36.7774 27.0397 34.9335C27.5321 33.3122 28.0006 32.1836 28.4453 31.5478C29.1124 30.5781 30.0336 30.0933 31.2089 30.0933C32.94 30.0933 34.9015 31.2299 37.0933 33.5029C39.4915 35.9985 40.6906 38.5736 40.6906 41.2282C40.6906 41.5779 40.6589 41.9276 40.5953 42.2773Z" fill="white"/>
<path d="M13.2697 41.252C13.1427 40.3619 12.7377 39.6068 12.0547 38.9869C11.3241 38.3352 10.4506 38.0093 9.43413 38.0093C8.41766 38.0093 7.90942 38.4941 7.90942 39.4638C7.90942 39.7181 7.98089 39.9247 8.12383 40.0837C8.94972 41.0056 10.0694 41.4666 11.483 41.4666C12.0547 41.4666 12.6503 41.3951 13.2697 41.252ZM17.3674 40.8705H20.8694V47.6182H16.9624C15.9459 51.8146 13.8574 55.3911 10.6968 58.3477C7.40913 61.3997 3.84353 62.9256 0 62.9256L0.905295 56.2256C3.66883 56.2256 6.21795 55.2401 8.55266 53.2691C10.7762 51.3934 11.888 49.4621 11.888 47.4751C11.618 47.5069 11.34 47.5228 11.0541 47.5228C9.14825 47.5228 7.50442 47.1095 6.12266 46.283C4.42324 45.2656 3.57353 43.7953 3.57353 41.8719C3.57353 39.4399 4.38354 37.2225 6.00354 35.2197C7.52825 33.344 9.05295 32.4061 10.5777 32.4061C12.1341 32.4061 13.5238 33.0658 14.7468 34.3851C16.1762 35.927 17.0497 38.0888 17.3674 40.8705Z" fill="white"/>
<path fill-rule="evenodd" clip-rule="evenodd" d="M51.5682 48.9598C51.5682 48.9598 50.7921 50.8654 49.2286 50.8654C47.7923 50.8706 47.0157 49.2462 46.8946 48.9928C46.8843 48.9714 46.8779 48.9598 46.8779 48.9598C45.3144 46.6126 45.3535 24.8795 45.3535 24.8795H53.0926C53.0926 24.8795 53.1317 46.6126 51.5682 48.9598ZM46.4647 16.0331H51.9926L53.0982 22.672H45.3591L46.4647 16.0331Z" fill="white"/>
<path d="M54.7621 8.8464C52.5454 4.42599 51.9926 2.76625 54.7565 0C41.4952 5.5269 46.4703 13.8256 46.4703 13.8256H51.9982C51.9982 13.8256 55.3093 11.6071 54.7621 8.8464Z" fill="#E19519"/>
<path fill-rule="evenodd" clip-rule="evenodd" d="M147.296 0C144.535 0 142.296 2.23857 142.296 5V24.2517H188.795C196.921 24.2517 202.338 22.6009 205.047 19.2993C201.406 16.7642 197.882 15.4966 194.475 15.4966C192.145 15.4966 189.174 16.2336 185.563 17.7075V6.29932C188.009 4.76644 191.023 4 194.606 4C196.877 4 199.542 4.64853 202.6 5.94558L209.503 9.04082C213.813 10.6621 218.414 11.4728 223.307 11.4728C224.151 11.4728 224.864 11.4287 225.446 11.3404V5C225.446 2.23858 223.207 0 220.446 0H147.296ZM225.446 22.1741C218.719 24.4439 212.749 27.5684 207.537 31.5476C205.614 33.0215 202.411 34.2891 197.926 35.3503C193.907 36.2936 190.368 36.7653 187.31 36.7653H142.296V68C142.296 70.7614 144.535 73 147.296 73H220.446C223.207 73 225.446 70.7614 225.446 68V22.1741ZM202.731 42.6905V54.1429H213.958V42.6905H202.731ZM188.14 42.6905V54.1429H199.367V42.6905H188.14ZM195.436 57.5476V69H206.663V57.5476H195.436Z" fill="white"/>
</svg>
