<svg width="31" height="30" viewBox="0 0 31 30" fill="none" xmlns="http://www.w3.org/2000/svg">
<g clip-path="url(#clip0_105_305)">
<path d="M23.7466 0H7.80908C3.92583 0 0.777832 3.148 0.777832 7.03125V22.9688C0.777832 26.852 3.92583 30 7.80908 30H23.7466C27.6298 30 30.7778 26.852 30.7778 22.9688V7.03125C30.7778 3.148 27.6298 0 23.7466 0Z" fill="url(#paint0_radial_105_305)"/>
<path d="M23.7466 0H7.80908C3.92583 0 0.777832 3.148 0.777832 7.03125V22.9688C0.777832 26.852 3.92583 30 7.80908 30H23.7466C27.6298 30 30.7778 26.852 30.7778 22.9688V7.03125C30.7778 3.148 27.6298 0 23.7466 0Z" fill="url(#paint1_radial_105_305)"/>
<path d="M15.7789 3.28125C12.5963 3.28125 12.1968 3.2952 10.9469 3.35203C9.69932 3.40922 8.84771 3.60668 8.10264 3.89648C7.33178 4.19578 6.67799 4.59621 6.02666 5.24777C5.37475 5.89922 4.97432 6.55301 4.67408 7.32352C4.38346 8.06883 4.18576 8.92078 4.12963 10.1678C4.07373 11.4178 4.05908 11.8174 4.05908 15.0001C4.05908 18.1828 4.07314 18.581 4.12986 19.8309C4.18729 21.0785 4.38475 21.9301 4.67432 22.6752C4.97385 23.4461 5.37428 24.0998 6.02584 24.7512C6.67705 25.4031 7.33084 25.8045 8.10111 26.1038C8.84678 26.3936 9.6985 26.591 10.9458 26.6482C12.1959 26.705 12.595 26.719 15.7775 26.719C18.9604 26.719 19.3586 26.705 20.6085 26.6482C21.8561 26.591 22.7087 26.3936 23.4543 26.1038C24.2248 25.8045 24.8777 25.4031 25.5288 24.7512C26.1807 24.0998 26.581 23.4461 26.8813 22.6755C27.1694 21.9301 27.3672 21.0783 27.4258 19.8312C27.4819 18.5812 27.4966 18.1828 27.4966 15.0001C27.4966 11.8174 27.4819 11.418 27.4258 10.168C27.3672 8.92043 27.1694 8.06895 26.8813 7.32387C26.581 6.55301 26.1807 5.89922 25.5288 5.24777C24.877 4.59598 24.2251 4.19555 23.4536 3.8966C22.7065 3.60668 21.8545 3.4091 20.6069 3.35203C19.3569 3.2952 18.9589 3.28125 15.7753 3.28125H15.7789ZM14.7276 5.39309C15.0397 5.39262 15.3878 5.39309 15.7789 5.39309C18.9079 5.39309 19.2787 5.40434 20.5143 5.46047C21.6569 5.51273 22.2771 5.70363 22.6901 5.86406C23.2371 6.07641 23.6269 6.33035 24.0369 6.74063C24.447 7.15078 24.7008 7.54137 24.9138 8.08828C25.0742 8.50078 25.2653 9.12094 25.3174 10.2635C25.3735 11.4989 25.3857 11.8699 25.3857 14.9974C25.3857 18.1249 25.3735 18.4961 25.3174 19.7313C25.2651 20.8739 25.0742 21.4941 24.9138 21.9067C24.7014 22.4536 24.447 22.843 24.0369 23.2529C23.6267 23.6631 23.2373 23.9169 22.6901 24.1294C22.2775 24.2905 21.6569 24.4809 20.5143 24.5332C19.2789 24.5893 18.9079 24.6015 15.7789 24.6015C12.6497 24.6015 12.2788 24.5893 11.0436 24.5332C9.901 24.4805 9.28084 24.2896 8.8674 24.1291C8.32061 23.9167 7.9299 23.6629 7.51975 23.2527C7.10959 22.8425 6.85576 22.4529 6.64283 21.9057C6.4824 21.4931 6.29127 20.873 6.23924 19.7304C6.18311 18.495 6.17186 18.124 6.17186 14.9945C6.17186 11.865 6.18311 11.496 6.23924 10.2606C6.2915 9.11801 6.4824 8.49785 6.64283 8.08477C6.85529 7.53785 7.10959 7.14727 7.51986 6.73711C7.93014 6.32695 8.32061 6.07301 8.86752 5.8602C9.28061 5.69906 9.901 5.50863 11.0436 5.45613C12.1246 5.40727 12.5436 5.39262 14.7276 5.39016V5.39309ZM22.0344 7.33887C21.258 7.33887 20.6281 7.96816 20.6281 8.74465C20.6281 9.52102 21.258 10.1509 22.0344 10.1509C22.8107 10.1509 23.4406 9.52102 23.4406 8.74465C23.4406 7.96828 22.8107 7.3384 22.0344 7.3384V7.33887ZM15.7789 8.98195C12.4554 8.98195 9.76084 11.6766 9.76084 15.0001C9.76084 18.3237 12.4554 21.017 15.7789 21.017C19.1024 21.017 21.7961 18.3237 21.7961 15.0001C21.7961 11.6767 19.1022 8.98195 15.7787 8.98195H15.7789ZM15.7789 11.0938C17.9362 11.0938 19.6852 12.8426 19.6852 15.0001C19.6852 17.1574 17.9362 18.9064 15.7789 18.9064C13.6216 18.9064 11.8727 17.1574 11.8727 15.0001C11.8727 12.8426 13.6215 11.0938 15.7789 11.0938Z" fill="white"/>
</g>
<defs>
<radialGradient id="paint0_radial_105_305" cx="0" cy="0" r="1" gradientUnits="userSpaceOnUse" gradientTransform="translate(8.74658 32.3106) rotate(-90) scale(29.7322 27.6533)">
<stop stop-color="#FFDD55"/>
<stop offset="0.1" stop-color="#FFDD55"/>
<stop offset="0.5" stop-color="#FF543E"/>
<stop offset="1" stop-color="#C837AB"/>
</radialGradient>
<radialGradient id="paint1_radial_105_305" cx="0" cy="0" r="1" gradientUnits="userSpaceOnUse" gradientTransform="translate(-4.24729 2.16105) rotate(78.681) scale(13.2905 54.7837)">
<stop stop-color="#3771C8"/>
<stop offset="0.128" stop-color="#3771C8"/>
<stop offset="1" stop-color="#6600FF" stop-opacity="0"/>
</radialGradient>
<clipPath id="clip0_105_305">
<rect width="30" height="30" fill="white" transform="translate(0.777832)"/>
</clipPath>
</defs>
</svg>
