<svg width="20" height="20" viewBox="0 0 20 20" fill="none" xmlns="http://www.w3.org/2000/svg">
<path id="Vector" d="M15.57 1.91066L16.1149 5.32508L19.2503 6.90845L17.6692 10.0044L19.2593 13.1004L16.097 14.6838L15.5521 18.0982L12.0772 17.5586L9.60283 20L7.11949 17.5232L3.67141 18.0893L3.11757 14.6484L0 13.0739L1.59005 9.97789L0.00893286 6.90845L3.14437 5.30739L3.68927 1.9195L7.14629 2.48563L9.62963 0L12.104 2.45024L15.57 1.91066ZM7.39641 5.5816C7.04104 5.5816 6.70022 5.72139 6.44894 5.97023C6.19765 6.21906 6.05648 6.55655 6.05648 6.90845C6.05648 7.26035 6.19765 7.59784 6.44894 7.84667C6.70022 8.0955 7.04104 8.23529 7.39641 8.23529C7.75178 8.23529 8.0926 8.0955 8.34389 7.84667C8.59517 7.59784 8.73634 7.26035 8.73634 6.90845C8.73634 6.55655 8.59517 6.21906 8.34389 5.97023C8.0926 5.72139 7.75178 5.5816 7.39641 5.5816ZM11.8628 11.7736C11.5075 11.7736 11.1667 11.9133 10.9154 12.1622C10.6641 12.411 10.5229 12.7485 10.5229 13.1004C10.5229 13.4523 10.6641 13.7898 10.9154 14.0386C11.1667 14.2875 11.5075 14.4272 11.8628 14.4272C12.2182 14.4272 12.559 14.2875 12.8103 14.0386C13.0616 13.7898 13.2028 13.4523 13.2028 13.1004C13.2028 12.7485 13.0616 12.411 12.8103 12.1622C12.559 11.9133 12.2182 11.7736 11.8628 11.7736ZM6.42273 14.4272L14.0961 6.82884L12.8365 5.5816L5.1632 13.18L6.42273 14.4272Z" fill="#707773"/>
</svg>
