<svg width="20" height="20" viewBox="0 0 20 20" fill="none" xmlns="http://www.w3.org/2000/svg">
<path d="M18.75 3.75V2.5H16.875V1.25H15.625V2.5H15C14.3106 2.5 13.75 3.06125 13.75 3.75V5C13.75 5.68938 14.3106 6.25 15 6.25H17.5V7.5H13.75V8.75H15.625V10H16.875V8.75H17.5C18.1894 8.75 18.75 8.18938 18.75 7.5V6.25C18.75 5.56125 18.1894 5 17.5 5H15V3.75H18.75ZM15 12.5V13.75H16.6163L14.375 15.9913L12.9425 14.5581C12.8255 14.4411 12.6668 14.3752 12.5013 14.375H12.5C12.3345 14.3752 12.1758 14.4411 12.0588 14.5581L8.75 17.8663L9.63375 18.75L12.5006 15.8837L13.9331 17.3169C14.0503 17.434 14.2093 17.4999 14.375 17.4999C14.5407 17.4999 14.6997 17.434 14.8169 17.3169L17.5 14.6337V16.25H18.75V12.5H15ZM2.5 18.75H1.25V15.625C1.25 13.2125 3.2125 11.25 5.625 11.25H9.375C10.6181 11.25 11.8062 11.7813 12.6356 12.7081L11.7044 13.5419C11.4113 13.2141 11.0523 12.9519 10.6509 12.7723C10.2495 12.5928 9.81472 12.5 9.375 12.5H5.625C3.90188 12.5 2.5 13.9019 2.5 15.625V18.75ZM7.5 10C8.66032 10 9.77312 9.53906 10.5936 8.71859C11.4141 7.89812 11.875 6.78532 11.875 5.625C11.875 4.46468 11.4141 3.35188 10.5936 2.53141C9.77312 1.71094 8.66032 1.25 7.5 1.25C6.33968 1.25 5.22688 1.71094 4.40641 2.53141C3.58594 3.35188 3.125 4.46468 3.125 5.625C3.125 6.78532 3.58594 7.89812 4.40641 8.71859C5.22688 9.53906 6.33968 10 7.5 10ZM7.5 2.5C8.3288 2.5 9.12366 2.82924 9.70971 3.41529C10.2958 4.00134 10.625 4.7962 10.625 5.625C10.625 6.4538 10.2958 7.24866 9.70971 7.83471C9.12366 8.42076 8.3288 8.75 7.5 8.75C6.6712 8.75 5.87634 8.42076 5.29029 7.83471C4.70424 7.24866 4.375 6.4538 4.375 5.625C4.375 4.7962 4.70424 4.00134 5.29029 3.41529C5.87634 2.82924 6.6712 2.5 7.5 2.5Z" fill="#707773" stroke="#707773" stroke-width="0.4"/>
</svg>
