<svg width="22" height="23" viewBox="0 0 22 23" fill="none" xmlns="http://www.w3.org/2000/svg">
<path d="M8.59625 22.75L8.14375 19.135C7.74458 19.0142 7.31333 18.825 6.85 18.5675C6.38583 18.3092 5.99125 18.0325 5.66625 17.7375L2.33125 19.1562L0 15.0938L2.8825 12.92C2.845 12.695 2.81458 12.4625 2.79125 12.2225C2.76625 11.9825 2.75375 11.7496 2.75375 11.5238C2.75375 11.3138 2.76625 11.0929 2.79125 10.8613C2.81458 10.6296 2.845 10.3687 2.8825 10.0787L0 7.9075L2.33125 3.8925L5.64125 5.2875C6.01458 4.97667 6.41875 4.69625 6.85375 4.44625C7.28708 4.19625 7.70917 4.00292 8.12 3.86625L8.595 0.25H13.26L13.7112 3.89C14.1904 4.05833 14.6138 4.25125 14.9813 4.46875C15.3488 4.68625 15.7275 4.95875 16.1175 5.28625L19.5238 3.8925L21.855 7.90625L18.8775 10.1512C18.9458 10.4096 18.9842 10.6467 18.9925 10.8625C19.0008 11.0783 19.005 11.2908 19.005 11.5C19.005 11.6942 18.9967 11.8988 18.98 12.1138C18.9642 12.3296 18.9275 12.5904 18.87 12.8962L21.8 15.0938L19.4688 19.1562L16.1175 17.7138C15.7283 18.0413 15.3367 18.3217 14.9425 18.555C14.5483 18.7883 14.1379 18.9738 13.7112 19.1113L13.26 22.75H8.59625ZM9.6775 21.5H12.1225L12.5837 18.115C13.2137 17.9483 13.7804 17.7196 14.2838 17.4288C14.7888 17.1379 15.3021 16.7396 15.8238 16.2337L18.9425 17.5625L20.185 15.4375L17.4487 13.3825C17.5529 13.0267 17.6221 12.6992 17.6562 12.4C17.6896 12.1017 17.7063 11.8017 17.7063 11.5C17.7063 11.1833 17.6896 10.8833 17.6562 10.6C17.6229 10.3167 17.5537 10.0054 17.4487 9.66625L20.2325 7.5625L18.99 5.4375L15.8 6.775C15.4217 6.35917 14.9246 5.96958 14.3088 5.60625C13.6921 5.24375 13.1088 5.00333 12.5588 4.885L12.1775 1.5H9.685L9.295 4.86125C8.665 4.99542 8.08583 5.21208 7.5575 5.51125C7.03 5.80958 6.505 6.22 5.9825 6.7425L2.865 5.4375L1.6225 7.5625L4.33375 9.5875C4.22958 9.8675 4.15667 10.1717 4.115 10.5C4.07333 10.8283 4.0525 11.17 4.0525 11.525C4.0525 11.8417 4.07333 12.1562 4.115 12.4687C4.15667 12.7812 4.22167 13.0854 4.31 13.3813L1.6225 15.4375L2.865 17.5625L5.95875 16.25C6.44958 16.745 6.95875 17.1421 7.48625 17.4413C8.01458 17.7404 8.60958 17.9733 9.27125 18.14L9.6775 21.5ZM10.8938 14.625C11.7654 14.625 12.5042 14.3221 13.11 13.7162C13.7158 13.1104 14.0188 12.3717 14.0188 11.5C14.0188 10.6283 13.7158 9.88958 13.11 9.28375C12.5042 8.67792 11.7654 8.375 10.8938 8.375C10.0171 8.375 9.27708 8.67792 8.67375 9.28375C8.07042 9.88958 7.76875 10.6283 7.76875 11.5C7.76875 12.3717 8.07042 13.1104 8.67375 13.7162C9.27708 14.3221 10.0171 14.625 10.8938 14.625Z" fill="#222625"/>
</svg>
