<svg width="26" height="27" viewBox="0 0 26 27" fill="none" xmlns="http://www.w3.org/2000/svg">
<path fill-rule="evenodd" clip-rule="evenodd" d="M6.4253 1.99833C6.95613 1.85425 7.55088 1.85425 8.41863 1.85425H18.5857C19.4546 1.85425 20.0493 1.85425 20.579 1.99833C21.1286 2.14898 21.6404 2.41356 22.081 2.7749C22.5217 3.13623 22.8814 3.58624 23.1368 4.09566C23.3816 4.58533 23.4986 5.16925 23.6676 6.02075L24.3393 9.37692C24.4586 9.96534 24.4473 10.5728 24.3064 11.1564C24.1654 11.74 23.8982 12.2856 23.5236 12.7547V15.7274C23.5236 17.7186 23.5236 19.2948 23.3578 20.5298C23.1866 21.7995 22.827 22.8276 22.0166 23.639C21.2052 24.4493 20.1771 24.809 18.9075 24.9802C17.6736 25.1459 16.0962 25.1459 14.1051 25.1459H12.8993C10.9092 25.1459 9.33188 25.1459 8.09797 24.9802C6.82722 24.809 5.79913 24.4493 4.9888 23.639C4.17847 22.8276 3.8188 21.7995 3.64763 20.5298C3.48188 19.2959 3.48188 17.7186 3.48188 15.7274V12.7537C3.10718 12.2847 2.83985 11.7394 2.69872 11.1559C2.55759 10.5725 2.5461 9.96525 2.66505 9.37692L3.33672 6.02075L3.33917 6.00848C3.50792 5.16364 3.6239 4.58298 3.86863 4.09566C4.1239 3.58635 4.48345 3.13642 4.92391 2.77509C5.36437 2.41376 5.87591 2.14911 6.4253 1.99833ZM21.8986 13.9897C21.3904 14.2038 20.8444 14.3136 20.293 14.3126C19.6341 14.3134 18.9845 14.156 18.399 13.8536C17.8134 13.5513 17.309 13.1127 16.9282 12.5749C16.5352 13.1146 16.0198 13.5535 15.4243 13.8555C14.8289 14.1576 14.1704 14.3142 13.5027 14.3126C12.8351 14.3142 12.1765 14.1576 11.5811 13.8555C10.9857 13.5535 10.4703 13.1146 10.0772 12.5749C9.53352 13.3413 8.74461 13.8992 7.84087 14.1564C6.93714 14.4137 5.97267 14.3549 5.10688 13.9897V15.6667C5.10688 17.7327 5.10797 19.2006 5.25855 20.3132C5.4048 21.403 5.67997 22.0313 6.13822 22.4896C6.59647 22.9478 7.2248 23.223 8.31355 23.3692C8.86735 23.4372 9.42411 23.4785 9.98188 23.4928L11.6069 23.5187C12.0272 23.5202 12.4786 23.5209 12.9611 23.5209H14.0444C14.5268 23.5209 14.9782 23.5202 15.3986 23.5187L17.0236 23.4928C17.5806 23.4784 18.1366 23.4372 18.6897 23.3692C19.7806 23.223 20.409 22.9478 20.8672 22.4896C21.3255 22.0313 21.6006 21.403 21.7469 20.3142C21.8964 19.2006 21.8986 17.7327 21.8986 15.6667V13.9897ZM8.53888 3.47925H9.89522L9.28097 9.64666L9.27663 9.69216L9.20188 10.4353C9.17029 10.7742 9.06991 11.1031 8.90686 11.4019C8.74382 11.7006 8.52154 11.963 8.25363 12.1729C7.98571 12.3828 7.67779 12.5359 7.3487 12.6227C7.01961 12.7096 6.67626 12.7284 6.33965 12.678C6.00305 12.6276 5.68026 12.5091 5.39103 12.3296C5.1018 12.1502 4.85221 11.9137 4.65752 11.6345C4.46283 11.3553 4.32714 11.0394 4.25874 10.706C4.19034 10.3726 4.19067 10.0287 4.25972 9.69541L4.90755 6.45625C5.11013 5.44225 5.18705 5.09341 5.32247 4.82366C5.4757 4.5182 5.69146 4.24836 5.95573 4.03168C6.22 3.815 6.52689 3.65631 6.85647 3.56591C7.1468 3.48683 7.50538 3.47925 8.53888 3.47925ZM11.53 3.47925L10.893 9.84383C10.8625 10.2064 10.9079 10.5714 11.0263 10.9154C11.1447 11.2595 11.3336 11.575 11.5808 11.8421C11.8279 12.1091 12.1281 12.3216 12.462 12.4662C12.7959 12.6107 13.1563 12.6841 13.5201 12.6816C13.884 12.6791 14.2433 12.6008 14.5752 12.4517C14.9071 12.3026 15.2043 12.0859 15.4478 11.8155C15.6913 11.5452 15.8758 11.227 15.9895 10.8814C16.1032 10.5358 16.1436 10.1702 16.1081 9.80808L15.4755 3.47925H11.53ZM18.4666 3.47925C19.5 3.47925 19.8586 3.48683 20.149 3.56591C20.4787 3.65617 20.7858 3.8148 21.0503 4.03149C21.3148 4.24818 21.5307 4.51808 21.6841 4.82366C21.8184 5.09341 21.8953 5.44225 22.099 6.45625L22.7457 9.69541C22.8134 10.0281 22.8126 10.3711 22.7435 10.7034C22.6743 11.0358 22.5382 11.3506 22.3435 11.6287C22.1488 11.9068 21.8995 12.1423 21.6108 12.321C21.3222 12.4996 21.0001 12.6176 20.6644 12.6678C20.3286 12.7181 19.9862 12.6994 19.6579 12.613C19.3296 12.5266 19.0223 12.3743 18.7548 12.1653C18.4872 11.9563 18.265 11.6951 18.1016 11.3975C17.9383 11.0999 17.8372 10.7722 17.8046 10.4342L17.1081 3.47925H18.4666Z" fill="#222625"/>
<path d="M17.0236 23.4928V20.5071C17.0236 20.0304 17.0236 19.6187 16.9932 19.2829C16.9607 18.9254 16.8892 18.5722 16.6964 18.2397C16.4827 17.869 16.1752 17.5611 15.8048 17.347C15.4722 17.1552 15.119 17.0837 14.7616 17.0512C14.4257 17.0209 14.014 17.0209 13.5374 17.0209H13.467C12.9903 17.0209 12.5797 17.0209 12.2428 17.0512C11.8853 17.0837 11.5332 17.1552 11.2006 17.347C10.8298 17.561 10.522 17.8689 10.308 18.2397C10.1162 18.5722 10.0447 18.9254 10.0122 19.2818C9.98188 19.6198 9.98188 20.0304 9.98188 20.506V23.4928L11.6069 23.5187V20.5417C11.6069 20.0207 11.608 19.6837 11.6307 19.4292C11.6524 19.1854 11.6903 19.0955 11.7152 19.0522C11.7868 18.9288 11.8895 18.8264 12.0131 18.7553C12.0576 18.7293 12.1453 18.6914 12.3901 18.6697C12.6447 18.6459 12.9816 18.6459 13.5027 18.6459C13.8737 18.6392 14.2449 18.6471 14.6153 18.6697C14.8591 18.6925 14.9479 18.7293 14.9923 18.7553C15.1155 18.8266 15.2179 18.9289 15.2891 19.0522C15.3151 19.0966 15.3531 19.1854 15.3747 19.4292C15.3975 19.6837 15.3986 20.0207 15.3986 20.5417V23.5187L17.0236 23.4928Z" fill="#8C311C"/>
</svg>
