<svg width="40" height="40" viewBox="0 0 40 40" fill="none" xmlns="http://www.w3.org/2000/svg">
<g id="ri:shopping-cart-line">
<path id="Vector" d="M6.67501 26.6666V6.66659H3.34167V3.33325H8.34167C8.7837 3.33325 9.20763 3.50885 9.52019 3.82141C9.83275 4.13397 10.0083 4.55789 10.0083 4.99992V24.9999H30.7383L34.0717 11.6666H13.3417V8.33325H36.2083C36.4617 8.33326 36.7117 8.39102 36.9394 8.50215C37.167 8.61327 37.3664 8.77484 37.5222 8.97456C37.6781 9.17429 37.7864 9.40692 37.8388 9.65477C37.8913 9.90262 37.8866 10.1592 37.825 10.4049L33.6583 27.0716C33.5681 27.432 33.3599 27.7519 33.067 27.9805C32.7741 28.2091 32.4132 28.3332 32.0417 28.3333H8.34001C7.89798 28.3333 7.47406 28.1577 7.1615 27.8451C6.84894 27.5325 6.67501 27.1086 6.67501 26.6666ZM10.0067 38.3333C9.12262 38.3333 8.27477 37.9821 7.64965 37.3569C7.02453 36.7318 6.67334 35.884 6.67334 34.9999C6.67334 34.1159 7.02453 33.268 7.64965 32.6429C8.27477 32.0178 9.12262 31.6666 10.0067 31.6666C10.8907 31.6666 11.7386 32.0178 12.3637 32.6429C12.9888 33.268 13.34 34.1159 13.34 34.9999C13.34 35.884 12.9888 36.7318 12.3637 37.3569C11.7386 37.9821 10.8907 38.3333 10.0067 38.3333ZM30.0067 38.3333C29.1226 38.3333 28.2748 37.9821 27.6497 37.3569C27.0245 36.7318 26.6733 35.884 26.6733 34.9999C26.6733 34.1159 27.0245 33.268 27.6497 32.6429C28.2748 32.0178 29.1226 31.6666 30.0067 31.6666C30.8907 31.6666 31.7386 32.0178 32.3637 32.6429C32.9888 33.268 33.34 34.1159 33.34 34.9999C33.34 35.884 32.9888 36.7318 32.3637 37.3569C31.7386 37.9821 30.8907 38.3333 30.0067 38.3333Z" fill="#666666"/>
</g>
</svg>
