<svg width="123" height="47" viewBox="0 0 123 47" fill="none" xmlns="http://www.w3.org/2000/svg">
<path d="M72.0156 27.5263C71.3711 28.0145 70.2969 28.4345 68.793 28.786C67.4453 29.0985 66.2588 29.2548 65.2334 29.2548H62.626V25.1093H65.7314C68.4561 25.1093 70.2725 24.5624 71.1807 23.4686C69.96 22.6288 68.7783 22.2089 67.6357 22.2089C66.8545 22.2089 65.8584 22.453 64.6475 22.9413V19.162C65.4678 18.6542 66.4785 18.4003 67.6797 18.4003C68.4414 18.4003 69.335 18.6151 70.3604 19.0448C71.1318 19.3866 71.9033 19.7284 72.6748 20.0702C74.1201 20.6073 75.6631 20.8759 77.3037 20.8759C77.5869 20.8759 77.8262 20.8612 78.0215 20.8319V24.4208C75.7656 25.1727 73.7637 26.2079 72.0156 27.5263ZM70.4043 35.0116V31.2177H74.1689V35.0116H70.4043ZM65.5117 35.0116V31.2177H69.2764V35.0116H65.5117ZM67.958 39.9335V36.1395H71.7227V39.9335H67.958Z" fill="#D63D3D"/>
<path d="M59.3447 29.2548C58.8662 29.2548 58.4854 29.1083 58.2021 28.8153C58.0361 28.6493 57.8799 28.3856 57.7334 28.0243C57.6162 27.7313 57.5186 27.5849 57.4404 27.5849C57.4111 27.5849 57.1182 27.8632 56.5615 28.4198C56.0049 28.9765 55.458 29.2548 54.9209 29.2548H50.8779V25.1093H54.3496C55.6484 25.1093 56.7959 23.6737 57.792 20.8026L60.8389 22.2235C60.8193 22.3309 60.6094 22.702 60.209 23.3368C59.8184 23.9716 59.623 24.4159 59.623 24.6698C59.623 24.9628 59.833 25.1093 60.2529 25.1093H63.2119V29.2548H59.3447ZM56.3564 35.0116V31.2177H60.1211V35.0116H56.3564ZM51.4785 35.0116V31.2177H55.2432V35.0116H51.4785Z" fill="#D63D3D"/>
<path d="M51.6982 29.2548H48.8418C48.1973 29.2548 47.7285 28.9618 47.4355 28.3759C47.1426 27.7802 46.9521 27.4823 46.8643 27.4823C46.8154 27.4823 46.542 27.6386 46.0439 27.9511C45.4482 28.3124 44.7451 28.5956 43.9346 28.8007C42.7334 29.1034 41.2441 29.2548 39.4668 29.2548C38.2363 29.2548 37.3867 29.2059 36.918 29.1083V25.1093H43.9932C44.8623 25.1093 45.2969 24.8895 45.2969 24.4501C45.2969 24.3817 45.2871 24.3085 45.2676 24.2304C44.418 21.3202 43.0508 18.3759 41.166 15.3974L44.5205 13.5224C46.3369 16.8915 47.7139 20.5048 48.6514 24.3622C48.7686 24.8602 49.2275 25.1093 50.0283 25.1093H51.6982V29.2548Z" fill="#D63D3D"/>
<path d="M22.6602 24.5673C22.6602 24.1962 22.4014 23.7958 21.8838 23.3661C21.415 22.9852 20.9365 22.7216 20.4482 22.5751L19.5693 24.8749C20.2041 25.2558 20.8486 25.4462 21.5029 25.4462C22.2744 25.4462 22.6602 25.1532 22.6602 24.5673ZM25.9414 25.9735C25.5996 28.4345 24.2617 29.6649 21.9277 29.6649C21.5176 29.6649 21.0928 29.6161 20.6533 29.5184C19.7061 29.3231 19.0664 29.0448 18.7344 28.6835C18.5 28.4198 18.3096 27.9218 18.1631 27.1893C16.8447 28.5663 15.4775 29.2548 14.0615 29.2548H13.2705V25.1093H14.1055C15.4336 25.1093 16.3223 24.6796 16.7715 23.8202C16.9961 23.3808 17.2744 22.5946 17.6064 21.4618C17.9092 20.4657 18.1973 19.7724 18.4707 19.3817C18.8809 18.786 19.4473 18.4882 20.1699 18.4882C21.2344 18.4882 22.4404 19.1864 23.7881 20.5829C25.2627 22.1161 26 23.6981 26 25.329C26 25.5438 25.9805 25.7587 25.9414 25.9735Z" fill="#D63D3D"/>
<path d="M9.13965 25.3436C9.06152 24.7968 8.8125 24.3329 8.39258 23.952C7.94336 23.5517 7.40625 23.3515 6.78125 23.3515C6.15625 23.3515 5.84375 23.6493 5.84375 24.245C5.84375 24.4013 5.8877 24.5282 5.97559 24.6259C6.4834 25.1923 7.17188 25.4755 8.04102 25.4755C8.39258 25.4755 8.75879 25.4315 9.13965 25.3436ZM11.6592 25.1093H13.8125V29.2548H11.4102C10.7852 31.8329 9.50098 34.0302 7.55762 35.8466C5.53613 37.7216 3.34375 38.6591 0.980469 38.6591L1.53711 34.5429C3.23633 34.5429 4.80371 33.9374 6.23926 32.7265C7.60645 31.5741 8.29004 30.3876 8.29004 29.1669C8.12402 29.1864 7.95312 29.1962 7.77734 29.1962C6.60547 29.1962 5.59473 28.9423 4.74512 28.4345C3.7002 27.8095 3.17773 26.9061 3.17773 25.7245C3.17773 24.2304 3.67578 22.8681 4.67188 21.6376C5.60938 20.4852 6.54688 19.9091 7.48438 19.9091C8.44141 19.9091 9.2959 20.3143 10.0479 21.1249C10.9268 22.0722 11.4639 23.4003 11.6592 25.1093Z" fill="#D63D3D"/>
<path fill-rule="evenodd" clip-rule="evenodd" d="M32.6883 30.079C32.6883 30.079 32.2111 31.2497 31.2498 31.2497C30.3666 31.2529 29.8891 30.255 29.8146 30.0993C29.8083 30.0861 29.8049 30.079 29.8044 30.079C28.843 28.637 28.8671 15.285 28.8671 15.285H33.6256C33.6256 15.285 33.6496 28.637 32.6883 30.079ZM29.5503 9.85009H32.9492L33.629 13.9288H28.8705L29.5503 9.85009Z" fill="#D63D3D"/>
<path d="M34.6522 5.43489C33.2891 2.71916 32.9492 1.69947 34.6487 0C26.4947 3.39552 29.5537 8.49394 29.5537 8.49394H32.9527C32.9527 8.49394 34.9886 7.13093 34.6522 5.43489Z" fill="#F8CA35"/>
<g clip-path="url(#clip0_1509_1865)">
<rect x="85" y="6.25488" width="38" height="40" rx="5" fill="#D63D3D"/>
<path d="M116.486 23.393C115.573 24.0959 114.05 24.7005 111.918 25.2066C110.007 25.6565 108.326 25.8814 106.872 25.8814H85V19.9134H107.578C111.44 19.9134 114.015 19.1261 115.303 17.5515C113.572 16.3424 111.897 15.7379 110.277 15.7379C109.17 15.7379 107.758 16.0893 106.041 16.7923V11.3515C107.204 10.6204 108.637 10.2549 110.34 10.2549C111.42 10.2549 112.686 10.5642 114.14 11.1828C115.233 11.6748 116.327 12.1669 117.421 12.659C119.47 13.4322 121.657 13.8188 123.983 13.8188C124.384 13.8188 124.723 13.7977 125 13.7556V18.9222C121.802 20.0048 118.964 21.495 116.486 23.393ZM114.202 34.1692V28.7073H119.539V34.1692H114.202ZM107.266 34.1692V28.7073H112.603V34.1692H107.266ZM110.734 41.2549V35.793H116.071V41.2549H110.734Z" fill="white"/>
</g>
<defs>
<clipPath id="clip0_1509_1865">
<rect x="85" y="6.25488" width="38" height="40" rx="5" fill="white"/>
</clipPath>
</defs>
</svg>
