<svg width="31" height="30" viewBox="0 0 31 30" fill="none" xmlns="http://www.w3.org/2000/svg">
<g clip-path="url(#clip0_105_302)">
<path d="M15.8887 0C11.9113 0 8.09336 1.58133 5.2832 4.39336C2.47017 7.20652 0.889477 11.0217 0.888672 15C0.888672 18.9766 2.4707 22.7946 5.2832 25.6066C8.09336 28.4187 11.9113 30 15.8887 30C19.866 30 23.684 28.4187 26.4941 25.6066C29.3066 22.7946 30.8887 18.9766 30.8887 15C30.8887 11.0234 29.3066 7.20539 26.4941 4.39336C23.684 1.58133 19.866 0 15.8887 0Z" fill="url(#paint0_linear_105_302)"/>
<path d="M7.67872 14.8416C12.0522 12.9366 14.9678 11.6806 16.4256 11.0737C20.5928 9.34101 21.4576 9.04007 22.0225 9.02987C22.1467 9.02788 22.4233 9.05858 22.6037 9.20448C22.7537 9.32753 22.7959 9.49394 22.817 9.61077C22.8358 9.72749 22.8615 9.99351 22.8404 10.2012C22.6154 12.573 21.6381 18.3288 21.1412 20.9855C20.9326 22.1095 20.5178 22.4864 20.117 22.5232C19.2451 22.6033 18.5842 21.9476 17.7404 21.3947C16.4209 20.5291 15.6756 19.9905 14.3936 19.1461C12.9123 18.1701 13.8733 17.6337 14.717 16.7571C14.9373 16.5276 18.7764 13.0366 18.849 12.72C18.8584 12.6804 18.8678 12.5327 18.7787 12.4549C18.692 12.3769 18.5631 12.4036 18.4693 12.4247C18.3358 12.4547 16.2287 13.8487 12.1412 16.6066C11.5436 17.0177 11.0022 17.2181 10.5147 17.2076C9.98028 17.1961 8.94903 16.9048 8.18263 16.6559C7.24513 16.3505 6.49747 16.189 6.5631 15.6703C6.59591 15.4003 6.96856 15.124 7.67872 14.8416Z" fill="white"/>
</g>
<defs>
<linearGradient id="paint0_linear_105_302" x1="1500.89" y1="0" x2="1500.89" y2="3000" gradientUnits="userSpaceOnUse">
<stop stop-color="#2AABEE"/>
<stop offset="1" stop-color="#229ED9"/>
</linearGradient>
<clipPath id="clip0_105_302">
<rect width="30" height="30" fill="white" transform="translate(0.888672)"/>
</clipPath>
</defs>
</svg>
